<svg id="svg" version="1.1" xmlns="http://www.w3.org/2000/svg" xmlns:xlink="http://www.w3.org/1999/xlink" width="400" height="400" viewBox="0, 0, 400,400"><g id="svgg"><path id="path0" d="M90.353 31.076 C 90.327 31.254,90.327 31.535,90.353 31.700 C 90.379 31.865,90.130 32.000,89.800 32.000 C 89.470 32.000,89.200 32.180,89.200 32.400 C 89.200 32.620,88.840 32.800,88.400 32.800 C 87.960 32.800,87.600 32.980,87.600 33.200 C 87.600 33.420,87.330 33.600,87.000 33.600 C 86.670 33.600,86.400 33.780,86.400 34.000 C 86.400 34.220,86.155 34.400,85.856 34.400 C 85.557 34.400,84.974 34.850,84.561 35.400 C 84.148 35.950,83.583 36.400,83.305 36.400 C 83.027 36.400,82.800 36.580,82.800 36.800 C 82.800 37.020,82.517 37.200,82.171 37.200 C 81.453 37.200,80.400 38.134,80.400 38.771 C 80.400 39.007,80.130 39.200,79.800 39.200 C 79.470 39.200,79.200 39.380,79.200 39.600 C 79.200 39.820,78.915 40.000,78.567 40.000 C 78.218 40.000,77.321 40.630,76.574 41.400 C 75.826 42.170,75.013 42.800,74.768 42.800 C 74.522 42.800,73.817 43.340,73.200 44.000 C 72.583 44.660,71.971 45.200,71.840 45.200 C 71.708 45.200,71.267 45.515,70.860 45.900 C 69.723 46.975,68.414 48.000,68.177 48.000 C 67.880 48.000,66.000 49.908,66.000 50.210 C 66.000 50.531,64.931 51.600,64.610 51.600 C 64.289 51.600,62.400 53.489,62.400 53.810 C 62.400 54.267,61.262 55.200,60.704 55.200 C 60.168 55.200,59.306 55.902,57.939 57.451 C 57.576 57.863,56.811 58.624,56.239 59.142 C 55.668 59.660,55.200 60.348,55.200 60.671 C 55.200 61.366,54.246 62.400,53.605 62.400 C 53.356 62.400,53.264 62.580,53.400 62.800 C 53.536 63.020,53.352 63.200,52.990 63.200 C 52.629 63.200,52.416 63.425,52.517 63.700 C 52.617 63.975,52.888 64.160,53.118 64.111 C 54.196 63.880,55.928 66.787,56.723 70.160 C 57.398 73.025,57.761 73.806,58.927 74.905 C 60.112 76.023,60.432 76.730,61.045 79.583 C 61.634 82.326,62.041 83.261,63.253 84.662 C 64.872 86.532,64.878 86.545,65.784 90.536 C 66.208 92.406,66.826 93.798,67.736 94.936 C 69.248 96.827,69.664 97.833,70.602 101.862 C 71.058 103.822,71.584 105.020,72.272 105.662 C 73.705 107.001,74.220 108.174,74.964 111.791 C 75.468 114.244,75.891 115.262,76.790 116.191 C 78.150 117.597,78.992 119.468,79.403 122.000 C 79.735 124.047,80.159 124.969,82.081 127.823 C 83.048 129.260,83.653 130.847,84.167 133.296 C 84.705 135.860,85.146 136.984,85.883 137.673 C 87.317 139.012,87.851 140.228,88.579 143.815 C 88.935 145.567,89.581 147.450,90.015 148.000 C 91.759 150.210,92.019 150.770,92.809 154.020 C 93.894 158.488,94.209 159.223,95.604 160.539 C 96.253 161.151,96.989 162.339,97.241 163.179 C 97.928 165.470,101.779 169.263,104.963 170.782 C 106.413 171.475,107.600 172.191,107.600 172.375 C 107.600 172.559,108.815 173.212,110.300 173.826 C 114.988 175.765,116.373 177.889,114.149 179.730 C 112.046 181.471,111.200 182.536,111.200 183.442 C 111.200 183.951,110.377 185.950,109.371 187.884 C 107.096 192.257,106.969 196.196,108.991 199.722 C 109.597 200.779,110.443 203.029,110.870 204.722 C 111.297 206.415,111.815 208.446,112.021 209.235 C 112.256 210.135,112.752 210.832,113.353 211.106 C 113.963 211.384,114.818 212.604,115.711 214.471 C 116.481 216.082,117.694 217.940,118.406 218.600 C 119.119 219.260,120.105 220.657,120.597 221.704 C 121.103 222.777,122.082 224.004,122.841 224.516 C 123.582 225.015,124.575 226.114,125.048 226.958 C 125.521 227.801,126.604 228.879,127.454 229.352 C 128.323 229.835,129.305 230.823,129.697 231.606 C 130.157 232.525,130.924 233.226,131.949 233.663 C 132.803 234.028,133.979 234.950,134.560 235.712 C 135.164 236.504,136.688 237.627,138.109 238.327 C 139.479 239.003,141.268 240.263,142.085 241.127 C 143.117 242.217,144.148 242.843,145.462 243.174 C 146.703 243.486,147.799 244.124,148.654 245.029 C 149.643 246.079,150.843 246.699,153.669 247.623 C 155.935 248.363,158.076 249.376,159.158 250.218 C 160.133 250.978,161.060 251.600,161.217 251.600 C 163.266 251.600,171.003 253.407,173.043 254.361 C 176.243 255.859,179.111 256.400,183.847 256.400 C 188.720 256.400,191.456 255.353,188.513 254.614 C 185.762 253.923,178.491 246.509,177.343 243.223 C 176.931 242.046,176.189 240.827,175.680 240.490 C 174.434 239.666,173.646 238.031,173.177 235.290 C 172.558 231.683,171.925 229.455,171.318 228.745 C 170.019 227.227,169.255 224.053,168.821 218.378 C 167.973 207.281,167.536 203.818,166.759 202.037 C 165.895 200.058,164.596 193.933,164.207 190.000 C 163.663 184.515,163.160 182.670,161.805 181.200 C 161.096 180.430,160.117 178.951,159.629 177.913 C 158.570 175.661,154.895 172.172,153.187 171.797 C 152.516 171.650,151.177 170.846,150.212 170.011 C 148.360 168.408,145.472 167.602,141.567 167.599 C 136.795 167.594,135.487 163.093,138.365 156.585 C 139.756 153.441,139.779 151.390,138.470 147.352 C 137.822 145.352,137.083 142.385,136.828 140.758 C 136.122 136.259,136.101 136.196,134.637 134.444 C 133.313 132.859,132.547 131.153,131.651 127.790 C 131.415 126.905,130.612 125.514,129.866 124.699 C 129.078 123.840,128.302 122.418,128.014 121.309 C 126.654 116.062,126.288 115.100,125.170 113.827 C 124.263 112.794,123.705 111.431,122.933 108.364 C 122.091 105.016,121.668 104.041,120.591 102.964 C 119.498 101.872,119.129 101.001,118.399 97.794 C 117.758 94.983,117.221 93.592,116.419 92.668 C 114.886 90.904,114.637 90.314,113.590 86.000 C 112.994 83.541,112.408 82.014,111.929 81.674 C 110.778 80.855,109.754 78.495,109.037 75.009 C 108.542 72.604,108.098 71.519,107.238 70.609 C 105.718 69.000,105.421 68.333,104.646 64.794 C 104.183 62.684,103.522 61.102,102.425 59.487 C 101.274 57.790,100.636 56.217,99.999 53.505 C 99.311 50.574,98.861 49.522,97.789 48.335 C 96.469 46.874,96.173 46.089,95.231 41.545 C 94.955 40.219,94.418 38.984,93.925 38.545 C 92.768 37.516,91.209 34.066,91.204 32.524 C 91.201 31.415,90.482 30.193,90.353 31.076 M165.400 268.295 C 163.404 268.587,162.948 269.247,164.271 269.932 C 165.772 270.710,171.137 275.987,171.456 277.000 C 171.595 277.440,172.381 278.380,173.204 279.088 C 174.250 279.989,174.836 280.922,175.157 282.195 C 175.423 283.252,176.213 284.677,177.043 285.595 C 179.379 288.181,179.696 289.811,179.902 300.317 C 180.156 313.263,179.452 318.774,177.220 321.316 C 176.332 322.327,175.940 323.395,175.425 326.205 C 174.538 331.037,174.118 332.238,172.774 333.769 C 171.594 335.112,171.247 336.235,170.235 341.963 C 169.869 344.034,169.082 346.472,168.185 348.310 C 165.692 353.424,165.751 363.211,168.294 366.166 C 168.902 366.872,169.939 368.916,170.598 370.707 C 171.646 373.554,171.990 374.072,173.341 374.831 C 174.190 375.309,175.251 376.319,175.699 377.077 C 176.289 378.078,177.315 378.848,179.445 379.887 C 181.059 380.674,182.912 381.904,183.564 382.620 C 184.410 383.550,185.332 384.048,186.788 384.360 C 189.307 384.900,191.497 385.998,192.764 387.355 C 193.294 387.923,194.374 388.498,195.164 388.633 C 199.295 389.340,201.459 390.115,202.800 391.367 C 203.921 392.413,204.878 392.819,207.600 393.404 C 211.442 394.229,212.844 394.827,214.675 396.421 C 215.457 397.102,216.849 397.728,218.275 398.040 C 219.554 398.320,220.729 398.759,220.887 399.016 C 221.258 399.619,227.200 399.813,227.200 399.221 C 227.200 398.969,228.251 398.800,229.813 398.800 C 231.766 398.800,232.483 398.649,232.655 398.200 C 232.827 397.753,233.539 397.600,235.443 397.600 C 236.881 397.600,238.000 397.425,238.000 397.200 C 238.000 396.980,238.979 396.800,240.176 396.800 C 241.373 396.800,242.464 396.620,242.600 396.400 C 242.736 396.180,243.557 396.000,244.424 396.000 C 245.291 396.000,246.000 395.820,246.000 395.600 C 246.000 395.380,246.810 395.200,247.800 395.200 C 249.133 395.200,249.600 395.044,249.600 394.600 C 249.600 394.156,250.067 394.000,251.400 394.000 C 252.390 394.000,253.200 393.820,253.200 393.600 C 253.200 393.380,254.010 393.200,255.000 393.200 C 255.990 393.200,256.800 393.020,256.800 392.800 C 256.800 392.580,257.430 392.400,258.200 392.400 C 258.970 392.400,259.600 392.220,259.600 392.000 C 259.600 391.780,260.230 391.600,261.000 391.600 C 261.978 391.600,262.400 391.419,262.400 391.000 C 262.400 390.581,262.822 390.400,263.800 390.400 C 264.570 390.400,265.200 390.220,265.200 390.000 C 265.200 389.780,265.740 389.600,266.400 389.600 C 267.060 389.600,267.600 389.420,267.600 389.200 C 267.600 388.980,268.230 388.800,269.000 388.800 C 269.770 388.800,270.400 388.620,270.400 388.400 C 270.400 388.180,270.760 388.000,271.200 388.000 C 271.644 388.000,272.000 387.733,272.000 387.400 C 272.000 386.981,272.422 386.800,273.400 386.800 C 274.170 386.800,274.800 386.620,274.800 386.400 C 274.800 386.180,275.250 386.000,275.800 386.000 C 276.350 386.000,276.800 385.820,276.800 385.600 C 276.800 385.380,277.340 385.200,278.000 385.200 C 278.660 385.200,279.200 385.020,279.200 384.800 C 279.200 384.580,279.650 384.400,280.200 384.400 C 280.750 384.400,281.200 384.220,281.200 384.000 C 281.200 383.780,281.560 383.600,282.000 383.600 C 282.444 383.600,282.800 383.333,282.800 383.000 C 282.800 382.581,283.222 382.400,284.200 382.400 C 284.970 382.400,285.600 382.220,285.600 382.000 C 285.600 381.780,285.949 381.600,286.376 381.600 C 286.803 381.600,287.264 381.420,287.400 381.200 C 287.536 380.980,287.997 380.800,288.424 380.800 C 288.851 380.800,289.200 380.620,289.200 380.400 C 289.200 380.180,289.448 380.000,289.751 380.000 C 290.054 380.000,290.526 379.730,290.800 379.400 C 291.074 379.070,291.636 378.800,292.049 378.800 C 292.462 378.800,292.800 378.620,292.800 378.400 C 292.800 378.180,293.160 378.000,293.600 378.000 C 294.040 378.000,294.400 377.820,294.400 377.600 C 294.400 377.380,294.670 377.200,295.000 377.200 C 295.330 377.200,295.600 377.020,295.600 376.800 C 295.600 376.580,295.960 376.400,296.400 376.400 C 296.844 376.400,297.200 376.133,297.200 375.800 C 297.200 375.427,297.578 375.200,298.200 375.200 C 298.750 375.200,299.200 375.020,299.200 374.800 C 299.200 374.580,299.560 374.400,300.000 374.400 C 300.440 374.400,300.800 374.220,300.800 374.000 C 300.800 373.780,301.115 373.594,301.500 373.587 C 302.365 373.572,303.600 372.671,303.600 372.056 C 303.600 371.805,303.960 371.600,304.400 371.600 C 304.840 371.600,305.200 371.420,305.200 371.200 C 305.200 370.980,305.470 370.800,305.800 370.800 C 306.130 370.800,306.400 370.620,306.400 370.400 C 306.400 370.180,306.760 370.000,307.200 370.000 C 307.640 370.000,308.000 369.820,308.000 369.600 C 308.000 369.380,308.335 369.200,308.744 369.200 C 309.153 369.200,309.826 368.750,310.239 368.200 C 310.652 367.650,311.307 367.200,311.695 367.200 C 312.083 367.200,312.400 367.020,312.400 366.800 C 312.400 366.580,312.670 366.400,313.000 366.400 C 313.330 366.400,313.600 366.220,313.600 366.000 C 313.600 365.780,313.845 365.600,314.144 365.600 C 314.443 365.600,315.026 365.150,315.439 364.600 C 315.852 364.050,316.417 363.600,316.695 363.600 C 316.973 363.600,317.200 363.420,317.200 363.200 C 317.200 362.980,317.483 362.800,317.829 362.800 C 318.547 362.800,319.600 361.866,319.600 361.229 C 319.600 360.993,319.870 360.800,320.200 360.800 C 320.530 360.800,320.800 360.620,320.800 360.400 C 320.800 360.180,321.120 360.000,321.512 360.000 C 321.903 360.000,322.483 359.640,322.800 359.200 C 323.117 358.760,323.607 358.400,323.888 358.400 C 324.170 358.400,324.400 358.130,324.400 357.800 C 324.400 357.470,324.720 357.200,325.112 357.200 C 325.503 357.200,326.083 356.840,326.400 356.400 C 326.717 355.960,327.125 355.600,327.306 355.600 C 327.488 355.600,328.052 355.195,328.559 354.700 C 330.220 353.081,331.599 352.000,332.003 352.000 C 332.221 352.000,332.400 351.719,332.400 351.376 C 332.400 351.033,332.580 350.864,332.800 351.000 C 333.020 351.136,333.200 350.967,333.200 350.624 C 333.200 350.281,333.065 350.034,332.900 350.077 C 331.522 350.429,327.119 348.785,325.565 347.339 C 324.404 346.258,323.982 346.174,311.504 344.553 L 303.208 343.475 295.104 344.559 C 284.500 345.977,283.391 346.214,281.853 347.386 C 279.968 348.825,278.198 349.469,274.222 350.163 C 271.477 350.642,270.232 351.088,268.644 352.164 C 265.861 354.049,264.419 354.349,256.297 354.729 C 243.413 355.333,237.821 354.630,234.656 352.009 C 233.587 351.124,232.551 350.400,232.352 350.400 C 231.136 350.400,228.423 348.620,227.969 347.524 C 227.669 346.801,226.956 346.090,226.223 345.784 C 224.796 345.188,223.966 344.333,223.041 342.507 C 222.681 341.795,221.849 340.936,221.192 340.596 C 220.346 340.158,219.650 339.211,218.803 337.342 C 218.145 335.891,216.995 334.027,216.247 333.199 C 215.134 331.968,214.726 330.987,214.001 327.806 C 213.466 325.456,212.658 323.181,211.959 322.056 C 210.538 319.771,210.177 317.159,209.624 305.160 C 209.193 295.810,209.115 295.426,207.001 292.298 C 206.221 291.144,205.476 289.532,205.343 288.716 C 205.115 287.306,200.425 281.200,199.570 281.200 C 199.393 281.200,198.322 280.313,197.192 279.230 C 195.731 277.829,194.693 277.185,193.600 277.000 C 192.227 276.768,190.544 275.843,187.665 273.739 C 187.091 273.320,184.850 272.783,181.866 272.349 C 177.932 271.777,176.491 271.375,174.331 270.247 C 172.129 269.097,167.741 267.818,166.827 268.060 C 166.702 268.093,166.060 268.199,165.400 268.295 " stroke="none" fill="#f9fbfb" fillRule="evenodd"></path><path id="path1" d="M92.297 30.236 C 91.913 30.620,93.087 33.509,94.362 35.319 C 95.013 36.244,96.029 38.620,96.620 40.600 C 97.211 42.580,98.294 45.190,99.028 46.400 C 99.762 47.610,100.731 49.947,101.182 51.592 C 101.632 53.238,102.613 55.578,103.362 56.792 C 104.111 58.007,105.180 60.576,105.738 62.502 C 106.296 64.428,107.380 67.038,108.145 68.302 C 108.911 69.566,109.923 72.039,110.394 73.797 C 110.872 75.581,111.841 77.882,112.586 79.005 C 113.335 80.133,114.325 82.491,114.840 84.370 C 115.346 86.214,116.171 88.330,116.675 89.073 C 118.170 91.276,118.726 92.543,119.433 95.355 C 119.801 96.821,120.785 99.153,121.620 100.537 C 122.455 101.921,123.592 104.618,124.146 106.529 C 124.700 108.440,125.696 110.768,126.360 111.702 C 127.044 112.666,127.933 114.784,128.414 116.600 C 128.913 118.485,129.827 120.638,130.638 121.840 C 131.395 122.962,132.481 125.266,133.050 126.960 C 133.620 128.655,134.519 130.556,135.048 131.185 C 136.227 132.585,136.922 134.207,137.798 137.600 C 138.167 139.030,139.109 141.730,139.891 143.600 C 141.952 148.527,142.025 154.494,140.087 159.577 C 137.929 165.238,138.168 165.566,145.171 166.561 C 147.808 166.935,150.204 167.504,150.834 167.905 C 151.434 168.287,153.401 169.534,155.206 170.675 C 160.364 173.939,164.044 179.669,165.420 186.583 C 165.955 189.274,166.744 192.571,167.171 193.911 C 168.325 197.521,168.751 200.228,169.419 208.200 C 170.161 217.049,170.596 219.647,172.060 223.979 C 172.690 225.841,173.488 228.876,173.834 230.722 C 174.610 234.860,175.388 237.123,176.410 238.211 C 176.841 238.669,177.753 240.204,178.438 241.622 C 179.122 243.040,180.428 244.982,181.341 245.939 C 185.564 250.364,187.978 252.478,190.123 253.627 C 198.233 257.971,179.124 259.580,169.031 255.402 C 167.165 254.629,164.370 253.730,162.820 253.404 C 159.515 252.709,157.959 252.099,155.885 250.687 C 155.051 250.119,153.206 249.268,151.783 248.794 C 150.360 248.321,148.444 247.305,147.526 246.538 C 146.607 245.770,144.763 244.644,143.428 244.034 C 142.092 243.424,140.203 242.254,139.228 241.434 C 138.253 240.614,136.791 239.603,135.978 239.189 C 135.165 238.774,134.073 237.930,133.550 237.312 C 133.028 236.694,131.970 235.747,131.200 235.206 C 128.868 233.568,119.200 223.473,119.200 222.676 C 119.200 222.393,118.464 221.451,117.565 220.581 C 116.666 219.712,115.381 217.920,114.709 216.600 C 114.038 215.280,112.903 213.514,112.186 212.677 C 111.470 211.839,110.672 210.309,110.415 209.277 C 110.157 208.244,109.249 205.960,108.397 204.200 C 105.261 197.724,105.219 189.385,108.301 185.069 C 108.956 184.151,109.620 182.991,109.776 182.492 C 109.932 181.993,110.676 180.776,111.429 179.789 C 113.265 177.383,113.253 177.356,109.700 175.728 C 107.995 174.948,106.060 173.915,105.400 173.432 C 104.740 172.950,103.384 172.086,102.386 171.512 C 100.060 170.173,96.955 166.853,95.992 164.676 C 95.579 163.742,94.777 162.542,94.208 162.008 C 93.539 161.379,92.806 159.833,92.128 157.619 C 91.553 155.738,90.489 153.120,89.765 151.800 C 89.041 150.480,88.056 147.960,87.577 146.200 C 86.667 142.858,85.995 141.302,84.710 139.564 C 84.289 138.994,83.504 137.014,82.967 135.164 C 82.429 133.314,81.372 130.799,80.617 129.576 C 79.862 128.353,78.879 126.030,78.431 124.414 C 77.983 122.798,76.903 120.288,76.031 118.838 C 75.159 117.387,74.152 115.018,73.793 113.573 C 73.433 112.129,72.710 110.239,72.184 109.373 C 70.536 106.658,69.671 104.694,68.819 101.727 C 68.365 100.146,67.550 98.327,67.009 97.684 C 66.468 97.041,65.499 94.891,64.856 92.907 C 64.213 90.923,62.947 88.074,62.043 86.575 C 61.140 85.077,60.400 83.610,60.400 83.315 C 60.400 82.163,58.809 78.343,57.652 76.715 C 56.981 75.772,55.972 73.531,55.410 71.736 C 53.884 66.863,51.878 64.538,50.393 65.920 C 49.634 66.627,49.657 66.681,51.601 68.820 C 53.652 71.078,53.975 71.779,54.801 75.779 C 55.186 77.640,55.629 78.500,56.839 79.734 C 57.831 80.747,58.471 81.829,58.625 82.756 C 59.221 86.338,60.080 88.515,61.380 89.742 C 62.480 90.780,62.834 91.560,63.403 94.200 C 64.171 97.768,64.717 99.039,65.969 100.172 C 66.732 100.862,67.301 102.430,68.763 107.863 C 69.009 108.778,69.740 110.093,70.388 110.787 C 71.624 112.110,71.919 112.844,73.046 117.391 C 73.558 119.456,74.087 120.541,75.080 121.563 C 75.817 122.323,76.495 123.317,76.586 123.772 C 77.543 128.579,78.163 130.380,79.401 131.945 C 80.852 133.778,81.284 134.869,82.004 138.509 C 82.300 140.007,82.927 141.429,83.789 142.559 C 85.641 144.984,85.839 145.442,86.363 148.509 C 86.941 151.887,87.405 153.130,88.562 154.400 C 89.548 155.483,89.999 156.545,90.990 160.117 C 91.376 161.511,92.157 163.024,92.950 163.917 C 93.675 164.732,94.883 166.533,95.634 167.917 C 96.719 169.917,97.493 170.758,99.400 172.010 C 100.720 172.876,102.502 174.129,103.361 174.794 C 104.219 175.458,105.659 176.196,106.561 176.434 C 107.462 176.671,108.598 177.120,109.084 177.431 L 109.968 177.998 108.924 180.099 C 108.350 181.254,107.287 182.864,106.563 183.676 C 103.479 187.131,103.781 203.344,106.988 206.552 C 108.163 207.726,108.579 208.568,109.155 210.928 C 109.638 212.907,111.418 216.000,112.074 216.000 C 112.276 216.000,113.001 217.195,113.684 218.655 C 114.518 220.435,115.311 221.523,116.094 221.955 C 116.736 222.310,117.704 223.461,118.245 224.514 C 118.785 225.567,119.786 226.768,120.468 227.183 C 121.149 227.597,122.092 228.626,122.564 229.468 C 123.035 230.311,124.061 231.345,124.843 231.767 C 125.625 232.189,126.611 233.179,127.033 233.967 C 127.525 234.887,128.416 235.696,129.519 236.226 C 130.465 236.680,131.582 237.617,132.003 238.309 C 132.424 239.001,133.535 239.958,134.471 240.436 C 135.407 240.914,136.900 242.052,137.788 242.967 C 138.948 244.160,140.080 244.839,141.802 245.374 C 143.481 245.896,144.620 246.568,145.600 247.615 C 146.662 248.749,147.679 249.312,149.818 249.947 C 151.725 250.514,153.013 251.178,153.802 252.002 C 155.054 253.309,157.398 254.167,160.914 254.607 C 162.507 254.806,163.732 255.301,165.357 256.405 C 169.169 258.992,188.393 260.295,192.518 258.246 C 196.127 256.453,195.249 253.198,190.835 252.009 C 189.672 251.696,189.030 251.231,188.591 250.383 C 188.254 249.730,187.264 248.745,186.392 248.195 C 185.520 247.644,184.376 246.513,183.851 245.681 C 183.326 244.849,182.245 243.671,181.448 243.064 C 180.558 242.385,180.000 241.620,180.000 241.080 C 179.999 240.038,177.781 235.200,177.303 235.200 C 176.449 235.200,175.649 232.665,175.221 228.600 C 174.639 223.072,173.877 219.721,172.651 217.296 C 171.522 215.065,170.954 210.898,170.594 202.200 C 170.290 194.866,169.559 190.782,168.177 188.693 C 167.491 187.657,166.879 185.772,166.361 183.095 C 165.595 179.143,164.541 176.693,163.424 176.265 C 163.117 176.147,162.259 175.012,161.518 173.744 C 160.529 172.052,159.642 171.131,158.185 170.284 C 157.093 169.649,155.660 168.614,155.000 167.985 C 153.224 166.291,151.240 165.623,146.703 165.191 C 142.317 164.773,141.221 164.256,141.926 162.939 C 144.090 158.895,143.433 142.720,140.994 140.000 C 139.806 138.675,139.362 137.725,139.028 135.800 C 138.437 132.385,137.895 131.068,136.421 129.464 C 135.253 128.193,134.776 127.234,134.401 125.400 C 133.819 122.561,133.107 121.032,131.609 119.400 C 130.787 118.505,130.288 117.230,129.643 114.380 C 128.924 111.201,128.518 110.244,127.220 108.673 C 126.362 107.635,125.566 106.294,125.450 105.693 C 125.334 105.092,125.046 103.605,124.810 102.390 C 124.368 100.115,123.113 97.600,122.420 97.600 C 121.784 97.600,121.270 96.305,120.581 92.968 C 119.853 89.444,119.180 87.912,117.998 87.084 C 117.195 86.521,116.515 84.589,115.640 80.379 C 115.313 78.806,114.714 77.597,113.584 76.230 C 112.708 75.169,111.910 73.919,111.811 73.451 C 111.712 72.983,111.424 71.520,111.170 70.200 C 110.627 67.377,109.923 65.871,108.764 65.060 C 108.150 64.630,107.663 63.364,106.951 60.353 C 106.190 57.132,105.673 55.843,104.583 54.444 C 103.188 52.653,102.960 52.063,101.791 47.200 C 101.337 45.313,100.797 44.216,99.821 43.200 C 98.731 42.065,98.356 41.206,97.839 38.663 C 97.111 35.078,96.209 32.940,95.194 32.397 C 94.808 32.190,94.378 31.566,94.238 31.011 C 94.003 30.071,92.901 29.632,92.297 30.236 M154.300 262.842 C 151.090 264.295,151.467 265.022,156.989 268.034 C 157.643 268.391,158.515 269.287,158.928 270.026 C 159.812 271.608,160.617 272.275,162.036 272.599 C 162.698 272.750,163.399 273.417,163.976 274.443 C 164.514 275.400,165.451 276.323,166.290 276.724 C 167.263 277.187,167.966 277.954,168.553 279.192 C 169.028 280.191,169.978 281.345,170.695 281.794 C 171.589 282.352,172.117 283.092,172.414 284.200 C 173.508 288.276,174.505 290.759,175.374 291.576 C 178.018 294.059,178.030 309.911,175.392 313.963 C 174.321 315.609,173.368 318.808,172.999 322.000 C 172.645 325.062,172.056 326.832,171.001 328.000 C 169.554 329.602,169.168 330.641,168.366 335.088 C 167.739 338.565,167.406 339.515,166.422 340.637 C 162.497 345.106,162.510 369.518,166.437 371.620 C 166.893 371.864,167.673 372.942,168.171 374.015 C 169.279 376.407,169.901 377.182,171.069 377.626 C 171.565 377.815,172.436 378.706,173.004 379.607 C 173.683 380.682,174.616 381.495,175.719 381.972 C 176.644 382.372,177.892 383.256,178.492 383.937 C 179.782 385.400,181.987 386.580,184.168 386.977 C 185.102 387.147,186.157 387.711,186.773 388.372 C 188.226 389.927,189.849 390.679,193.010 391.261 C 195.193 391.663,196.090 392.066,197.480 393.269 C 198.436 394.097,199.890 394.935,200.709 395.130 C 201.529 395.326,203.526 395.785,205.147 396.149 C 207.331 396.640,208.298 397.072,208.882 397.814 C 210.266 399.573,211.637 400.004,215.680 399.953 C 218.853 399.913,219.135 399.859,217.600 399.588 C 215.604 399.235,213.823 398.427,211.364 396.759 C 210.464 396.149,208.214 395.267,206.364 394.799 C 204.373 394.296,201.939 393.316,200.400 392.397 C 198.970 391.544,196.450 390.474,194.800 390.021 C 193.151 389.567,190.901 388.593,189.800 387.855 C 188.700 387.118,186.720 386.099,185.400 385.590 C 184.080 385.081,181.920 383.864,180.600 382.886 C 179.280 381.907,177.779 380.946,177.264 380.749 C 175.530 380.088,170.437 374.564,168.937 371.716 C 165.067 364.372,165.420 365.563,165.258 359.298 C 165.085 352.589,165.673 347.819,167.031 344.920 C 168.492 341.799,168.740 341.043,169.609 337.062 C 170.150 334.584,170.857 332.675,171.802 331.144 C 172.757 329.596,173.514 327.541,174.205 324.618 C 174.759 322.271,175.734 319.319,176.371 318.057 C 179.797 311.270,179.708 294.708,176.209 288.200 C 175.263 286.440,174.276 284.328,174.016 283.507 C 173.755 282.685,173.009 281.515,172.357 280.907 C 171.705 280.298,170.645 278.990,170.000 278.000 C 169.356 277.010,168.276 275.840,167.602 275.400 C 166.928 274.960,166.111 274.200,165.786 273.711 C 165.462 273.222,164.207 272.092,162.998 271.199 C 156.275 266.232,167.645 264.696,177.975 269.175 C 179.419 269.801,182.400 270.715,184.600 271.206 C 188.521 272.082,191.280 273.159,191.814 274.023 C 191.962 274.262,193.369 275.047,194.942 275.767 C 199.563 277.882,204.760 282.878,206.550 286.925 C 207.101 288.171,208.002 289.781,208.554 290.504 C 209.778 292.109,210.210 293.986,210.783 300.200 C 211.804 311.270,212.135 313.388,214.095 321.372 C 215.792 328.283,216.345 329.965,217.266 331.014 C 217.880 331.713,218.935 333.518,219.611 335.026 C 220.716 337.488,222.906 340.372,225.817 343.200 C 226.383 343.750,227.712 345.050,228.769 346.088 C 229.914 347.211,231.726 348.423,233.246 349.081 C 234.651 349.688,236.755 350.759,237.923 351.460 C 243.164 354.608,258.702 354.375,265.746 351.043 C 266.964 350.467,269.635 349.614,271.680 349.148 C 273.726 348.682,276.030 347.982,276.800 347.592 C 277.570 347.203,278.920 346.514,279.800 346.061 C 280.680 345.608,283.290 344.861,285.600 344.401 C 287.910 343.941,291.330 343.102,293.200 342.536 C 299.589 340.603,307.021 340.610,313.600 342.556 C 315.470 343.109,318.620 343.843,320.600 344.187 C 325.597 345.056,325.513 345.025,333.295 348.858 C 334.349 349.377,334.686 349.278,334.922 348.378 C 335.080 347.774,334.888 347.462,334.201 347.200 C 333.686 347.005,332.458 346.228,331.471 345.475 C 329.649 344.084,329.030 343.913,321.735 342.783 C 319.867 342.494,318.632 342.077,318.188 341.586 C 315.326 338.424,292.428 338.327,289.046 341.462 C 288.171 342.274,287.133 342.582,283.280 343.172 C 278.671 343.878,276.621 344.626,274.381 346.420 C 273.673 346.986,271.959 347.462,268.781 347.976 C 264.042 348.741,262.778 349.147,260.400 350.672 C 258.461 351.915,251.596 352.560,246.227 352.003 C 242.110 351.576,241.424 351.353,240.254 350.059 C 239.848 349.611,237.960 348.755,236.058 348.156 C 233.072 347.216,232.354 346.805,230.800 345.144 C 229.810 344.085,228.424 343.021,227.720 342.778 C 226.781 342.453,226.317 341.960,225.974 340.921 C 225.717 340.142,224.643 338.551,223.587 337.385 C 222.371 336.043,221.339 334.365,220.772 332.811 C 220.183 331.195,219.423 329.983,218.548 329.262 C 217.083 328.054,216.902 327.261,215.378 315.400 C 215.010 312.540,214.300 308.850,213.798 307.200 C 212.941 304.380,212.370 300.736,211.760 294.200 C 211.458 290.969,210.634 288.610,209.540 287.843 C 209.120 287.549,208.068 285.844,207.202 284.054 C 206.337 282.264,205.430 280.800,205.188 280.800 C 204.946 280.800,203.618 279.654,202.237 278.252 C 200.359 276.347,199.136 275.484,197.381 274.827 C 196.090 274.344,194.295 273.267,193.390 272.434 C 192.025 271.175,191.275 270.836,188.973 270.432 C 187.448 270.164,185.711 269.855,185.113 269.744 C 184.516 269.633,183.346 269.079,182.513 268.512 C 179.974 266.783,178.627 266.413,172.536 265.773 C 166.878 265.179,166.094 264.967,162.600 263.091 C 160.284 261.847,156.735 261.741,154.300 262.842 " stroke="none" fill="#a8e2d7" fillRule="evenodd"></path><path id="path2" d="M91.204 32.300 C 91.208 34.031,92.701 37.457,93.925 38.545 C 94.418 38.984,94.955 40.219,95.231 41.545 C 96.173 46.089,96.469 46.874,97.789 48.335 C 98.861 49.522,99.311 50.574,99.999 53.505 C 100.636 56.217,101.274 57.790,102.425 59.487 C 103.522 61.102,104.183 62.684,104.646 64.794 C 105.421 68.333,105.718 69.000,107.238 70.609 C 108.098 71.519,108.542 72.604,109.037 75.009 C 109.754 78.495,110.778 80.855,111.929 81.674 C 112.408 82.014,112.994 83.541,113.590 86.000 C 114.637 90.314,114.886 90.904,116.419 92.668 C 117.221 93.592,117.758 94.983,118.399 97.794 C 119.129 101.001,119.498 101.872,120.591 102.964 C 121.668 104.041,122.091 105.016,122.933 108.364 C 123.705 111.431,124.263 112.794,125.170 113.827 C 126.288 115.100,126.654 116.062,128.014 121.309 C 128.302 122.418,129.078 123.840,129.866 124.699 C 130.612 125.514,131.415 126.905,131.651 127.790 C 132.547 131.153,133.313 132.859,134.637 134.444 C 136.101 136.196,136.122 136.259,136.828 140.758 C 137.083 142.385,137.822 145.352,138.470 147.352 C 139.779 151.390,139.756 153.441,138.365 156.585 C 135.487 163.093,136.795 167.594,141.567 167.599 C 145.472 167.602,148.360 168.408,150.212 170.011 C 151.177 170.846,152.516 171.650,153.187 171.797 C 154.895 172.172,158.570 175.661,159.629 177.913 C 160.117 178.951,161.096 180.430,161.805 181.200 C 163.160 182.670,163.663 184.515,164.207 190.000 C 164.596 193.933,165.895 200.058,166.759 202.037 C 167.536 203.818,167.973 207.281,168.821 218.378 C 169.255 224.053,170.019 227.227,171.318 228.745 C 171.925 229.455,172.558 231.683,173.177 235.290 C 173.646 238.031,174.434 239.666,175.680 240.490 C 176.189 240.827,176.931 242.046,177.343 243.223 C 178.491 246.509,185.762 253.923,188.513 254.614 C 191.456 255.353,188.720 256.400,183.847 256.400 C 179.111 256.400,176.243 255.859,173.043 254.361 C 171.003 253.407,163.266 251.600,161.217 251.600 C 161.060 251.600,160.133 250.978,159.158 250.218 C 158.076 249.376,155.935 248.363,153.669 247.623 C 150.843 246.699,149.643 246.079,148.654 245.029 C 147.799 244.124,146.703 243.486,145.462 243.174 C 144.148 242.843,143.117 242.217,142.085 241.127 C 141.268 240.263,139.479 239.003,138.109 238.327 C 136.688 237.627,135.164 236.504,134.560 235.712 C 133.979 234.950,132.803 234.028,131.949 233.663 C 130.924 233.226,130.157 232.525,129.697 231.606 C 129.305 230.823,128.323 229.835,127.454 229.352 C 126.604 228.879,125.521 227.801,125.048 226.958 C 124.575 226.114,123.582 225.015,122.841 224.516 C 122.082 224.004,121.103 222.777,120.597 221.704 C 120.105 220.657,119.119 219.260,118.406 218.600 C 117.694 217.940,116.481 216.082,115.711 214.471 C 114.818 212.604,113.963 211.384,113.353 211.106 C 112.752 210.832,112.256 210.135,112.021 209.235 C 111.815 208.446,111.297 206.415,110.870 204.722 C 110.443 203.029,109.597 200.779,108.991 199.722 C 106.969 196.196,107.096 192.257,109.371 187.884 C 110.377 185.950,111.200 183.951,111.200 183.442 C 111.200 182.536,112.046 181.471,114.149 179.730 C 116.373 177.889,114.988 175.765,110.300 173.826 C 108.815 173.212,107.600 172.559,107.600 172.375 C 107.600 172.191,106.413 171.475,104.963 170.782 C 101.779 169.263,97.928 165.470,97.241 163.179 C 96.989 162.339,96.253 161.151,95.604 160.539 C 94.206 159.220,93.891 158.482,92.810 154.000 C 92.359 152.130,91.631 150.150,91.193 149.600 C 89.466 147.434,89.222 146.891,88.588 143.815 C 87.849 140.224,87.314 139.009,85.883 137.673 C 85.146 136.984,84.705 135.860,84.167 133.296 C 83.653 130.847,83.048 129.260,82.081 127.823 C 80.159 124.969,79.735 124.047,79.403 122.000 C 78.992 119.468,78.150 117.597,76.790 116.191 C 75.891 115.262,75.468 114.244,74.964 111.791 C 74.220 108.174,73.705 107.001,72.272 105.662 C 71.584 105.020,71.058 103.822,70.602 101.862 C 69.664 97.833,69.248 96.827,67.736 94.936 C 66.826 93.798,66.208 92.406,65.784 90.536 C 64.878 86.545,64.872 86.532,63.253 84.662 C 62.041 83.261,61.634 82.326,61.045 79.583 C 60.432 76.730,60.112 76.023,58.927 74.905 C 57.761 73.806,57.398 73.025,56.723 70.160 C 55.829 66.367,54.307 64.072,52.739 64.154 C 51.383 64.225,51.448 64.942,52.976 66.772 C 53.888 67.863,54.743 69.605,55.407 71.727 C 55.971 73.527,56.981 75.772,57.652 76.715 C 58.809 78.343,60.400 82.163,60.400 83.315 C 60.400 83.610,61.140 85.077,62.043 86.575 C 62.947 88.074,64.213 90.923,64.856 92.907 C 65.499 94.891,66.468 97.041,67.009 97.684 C 67.550 98.327,68.365 100.146,68.819 101.727 C 69.671 104.694,70.536 106.658,72.184 109.373 C 72.710 110.239,73.433 112.129,73.793 113.573 C 74.152 115.018,75.159 117.387,76.031 118.838 C 76.903 120.288,77.983 122.798,78.431 124.414 C 78.879 126.030,79.862 128.353,80.617 129.576 C 81.372 130.799,82.429 133.314,82.967 135.164 C 83.504 137.014,84.289 138.994,84.710 139.564 C 85.995 141.302,86.667 142.858,87.577 146.200 C 88.056 147.960,89.041 150.480,89.765 151.800 C 90.489 153.120,91.553 155.738,92.128 157.619 C 92.806 159.833,93.539 161.379,94.208 162.008 C 94.777 162.542,95.579 163.742,95.992 164.676 C 96.955 166.853,100.060 170.173,102.386 171.512 C 103.384 172.086,104.740 172.950,105.400 173.432 C 106.060 173.915,107.995 174.948,109.700 175.728 C 113.253 177.356,113.265 177.383,111.429 179.789 C 110.676 180.776,109.932 181.993,109.776 182.492 C 109.620 182.991,108.956 184.151,108.301 185.069 C 105.219 189.385,105.261 197.724,108.397 204.200 C 109.249 205.960,110.157 208.244,110.415 209.277 C 110.672 210.309,111.470 211.839,112.186 212.677 C 112.903 213.514,114.038 215.280,114.709 216.600 C 115.381 217.920,116.666 219.712,117.565 220.581 C 118.464 221.451,119.200 222.393,119.200 222.676 C 119.200 223.473,128.868 233.568,131.200 235.206 C 131.970 235.747,133.028 236.694,133.550 237.312 C 134.073 237.930,135.165 238.774,135.978 239.189 C 136.791 239.603,138.253 240.614,139.228 241.434 C 140.203 242.254,142.092 243.424,143.428 244.034 C 144.763 244.644,146.607 245.770,147.526 246.538 C 148.444 247.305,150.360 248.321,151.783 248.794 C 153.206 249.268,155.051 250.119,155.885 250.687 C 157.959 252.099,159.515 252.709,162.820 253.404 C 164.370 253.730,167.165 254.629,169.031 255.402 C 179.124 259.580,198.233 257.971,190.123 253.627 C 187.978 252.478,185.564 250.364,181.341 245.939 C 180.428 244.982,179.122 243.040,178.438 241.622 C 177.753 240.204,176.841 238.669,176.410 238.211 C 175.388 237.123,174.610 234.860,173.834 230.722 C 173.488 228.876,172.690 225.841,172.060 223.979 C 170.596 219.647,170.161 217.049,169.419 208.200 C 168.751 200.228,168.325 197.521,167.171 193.911 C 166.744 192.571,165.955 189.274,165.420 186.583 C 164.044 179.669,160.364 173.939,155.206 170.675 C 153.401 169.534,151.434 168.287,150.834 167.905 C 150.204 167.504,147.808 166.935,145.171 166.561 C 138.168 165.566,137.929 165.238,140.087 159.577 C 142.025 154.494,141.952 148.527,139.891 143.600 C 139.109 141.730,138.167 139.030,137.798 137.600 C 136.922 134.207,136.227 132.585,135.048 131.185 C 134.519 130.556,133.620 128.655,133.050 126.960 C 132.481 125.266,131.395 122.962,130.638 121.840 C 129.827 120.638,128.913 118.485,128.414 116.600 C 127.933 114.784,127.044 112.666,126.360 111.702 C 125.696 110.768,124.700 108.440,124.146 106.529 C 123.592 104.618,122.455 101.921,121.620 100.537 C 120.785 99.153,119.801 96.821,119.433 95.355 C 118.726 92.543,118.170 91.276,116.675 89.073 C 116.171 88.330,115.346 86.214,114.840 84.370 C 114.325 82.491,113.335 80.133,112.586 79.005 C 111.841 77.882,110.872 75.581,110.394 73.797 C 109.923 72.039,108.911 69.566,108.145 68.302 C 107.380 67.038,106.296 64.428,105.738 62.502 C 105.180 60.576,104.111 58.007,103.362 56.792 C 102.613 55.578,101.632 53.238,101.182 51.592 C 100.731 49.947,99.762 47.610,99.028 46.400 C 98.294 45.190,97.208 42.580,96.613 40.600 C 96.019 38.620,94.927 36.100,94.187 35.000 C 93.446 33.900,92.722 32.505,92.577 31.900 C 92.174 30.217,91.199 30.501,91.204 32.300 M161.488 267.103 C 160.266 268.453,160.636 269.453,162.998 271.199 C 164.207 272.092,165.462 273.222,165.786 273.711 C 166.111 274.200,166.928 274.960,167.602 275.400 C 168.276 275.840,169.356 277.010,170.000 278.000 C 170.645 278.990,171.705 280.298,172.357 280.907 C 173.009 281.515,173.755 282.685,174.016 283.507 C 174.276 284.328,175.263 286.440,176.209 288.200 C 179.708 294.708,179.797 311.270,176.371 318.057 C 175.734 319.319,174.759 322.271,174.205 324.618 C 173.514 327.541,172.757 329.596,171.802 331.144 C 170.857 332.675,170.150 334.584,169.609 337.062 C 168.740 341.043,168.492 341.799,167.031 344.920 C 165.673 347.819,165.085 352.589,165.258 359.298 C 165.420 365.563,165.067 364.372,168.937 371.716 C 170.437 374.564,175.530 380.088,177.264 380.749 C 177.779 380.946,179.280 381.907,180.600 382.886 C 181.920 383.864,184.080 385.081,185.400 385.590 C 186.720 386.099,188.700 387.118,189.800 387.855 C 190.901 388.593,193.151 389.567,194.800 390.021 C 196.450 390.474,198.970 391.544,200.400 392.397 C 201.939 393.316,204.373 394.296,206.364 394.799 C 208.226 395.270,210.459 396.151,211.364 396.772 C 214.180 398.704,216.589 399.600,218.966 399.600 C 221.937 399.600,221.606 398.727,218.382 398.061 C 216.838 397.742,215.531 397.167,214.695 396.439 C 212.844 394.826,211.452 394.231,207.600 393.404 C 204.878 392.819,203.921 392.413,202.800 391.367 C 201.459 390.115,199.295 389.340,195.164 388.633 C 194.374 388.498,193.294 387.923,192.764 387.355 C 191.497 385.998,189.307 384.900,186.788 384.360 C 185.332 384.048,184.410 383.550,183.564 382.620 C 182.912 381.904,181.059 380.674,179.445 379.887 C 177.315 378.848,176.289 378.078,175.699 377.077 C 175.251 376.319,174.190 375.309,173.341 374.831 C 171.990 374.072,171.646 373.554,170.598 370.707 C 169.939 368.916,168.902 366.872,168.294 366.166 C 165.751 363.211,165.692 353.424,168.185 348.310 C 169.082 346.472,169.869 344.034,170.235 341.963 C 171.247 336.235,171.594 335.112,172.774 333.769 C 174.118 332.238,174.538 331.037,175.425 326.205 C 175.940 323.395,176.332 322.327,177.220 321.316 C 179.452 318.774,180.156 313.263,179.902 300.317 C 179.696 289.811,179.379 288.181,177.043 285.595 C 176.213 284.677,175.423 283.252,175.157 282.195 C 174.836 280.922,174.250 279.989,173.204 279.088 C 172.381 278.380,171.595 277.435,171.455 276.988 C 171.124 275.926,165.181 270.175,164.041 269.813 C 162.734 269.398,163.639 268.554,165.683 268.280 C 168.145 267.949,171.311 268.669,174.331 270.247 C 176.491 271.375,177.932 271.777,181.866 272.349 C 184.850 272.783,187.091 273.320,187.665 273.739 C 190.544 275.843,192.227 276.768,193.600 277.000 C 194.693 277.185,195.731 277.829,197.192 279.230 C 198.322 280.313,199.393 281.200,199.570 281.200 C 200.425 281.200,205.115 287.306,205.343 288.716 C 205.476 289.532,206.221 291.144,207.001 292.298 C 209.115 295.426,209.193 295.810,209.624 305.160 C 210.177 317.159,210.538 319.771,211.959 322.056 C 212.658 323.181,213.466 325.456,214.001 327.806 C 214.726 330.987,215.134 331.968,216.247 333.199 C 216.995 334.027,218.145 335.891,218.803 337.342 C 219.650 339.211,220.346 340.158,221.192 340.596 C 221.849 340.936,222.681 341.795,223.041 342.507 C 223.966 344.333,224.796 345.188,226.223 345.784 C 226.956 346.090,227.669 346.801,227.969 347.524 C 228.423 348.620,231.136 350.400,232.352 350.400 C 232.551 350.400,233.587 351.124,234.656 352.009 C 237.821 354.630,243.413 355.333,256.297 354.729 C 264.419 354.349,265.861 354.049,268.644 352.164 C 270.232 351.088,271.477 350.642,274.222 350.163 C 278.198 349.469,279.968 348.825,281.853 347.386 C 283.391 346.214,284.500 345.977,295.104 344.559 L 303.208 343.475 311.504 344.553 C 323.982 346.174,324.404 346.258,325.565 347.339 C 326.958 348.636,327.947 349.107,330.469 349.675 C 333.289 350.311,333.800 350.306,333.800 349.644 C 333.800 349.338,333.530 348.958,333.200 348.801 C 332.870 348.644,331.070 347.780,329.200 346.882 C 325.256 344.988,325.321 345.008,320.600 344.187 C 318.620 343.843,315.470 343.109,313.600 342.556 C 307.021 340.610,299.589 340.603,293.200 342.536 C 291.330 343.102,287.910 343.941,285.600 344.401 C 283.290 344.861,280.680 345.608,279.800 346.061 C 278.920 346.514,277.570 347.203,276.800 347.592 C 276.030 347.982,273.726 348.682,271.680 349.148 C 269.635 349.614,266.964 350.467,265.746 351.043 C 258.702 354.375,243.164 354.608,237.923 351.460 C 236.755 350.759,234.651 349.688,233.246 349.081 C 231.726 348.423,229.914 347.211,228.769 346.088 C 227.712 345.050,226.383 343.750,225.817 343.200 C 222.906 340.372,220.716 337.488,219.611 335.026 C 218.935 333.518,217.880 331.713,217.266 331.014 C 216.345 329.965,215.792 328.283,214.095 321.372 C 212.135 313.388,211.804 311.270,210.783 300.200 C 210.210 293.986,209.778 292.109,208.554 290.504 C 208.002 289.781,207.101 288.171,206.550 286.925 C 204.760 282.878,199.563 277.882,194.942 275.767 C 193.369 275.047,191.962 274.262,191.814 274.023 C 191.280 273.159,188.521 272.082,184.600 271.206 C 182.400 270.715,179.354 269.773,177.832 269.112 C 172.974 267.005,162.718 265.744,161.488 267.103 " stroke="none" fill="#c7ede5" fillRule="evenodd"></path><path id="path3" d="M176.900 0.274 C 174.639 0.359,172.800 0.601,172.800 0.814 C 172.800 1.026,171.624 1.200,170.187 1.200 C 168.234 1.200,167.517 1.351,167.345 1.800 C 167.173 2.247,166.461 2.400,164.557 2.400 C 163.119 2.400,162.000 2.575,162.000 2.800 C 162.000 3.020,161.111 3.200,160.024 3.200 C 158.937 3.200,157.936 3.380,157.800 3.600 C 157.664 3.820,156.753 4.000,155.776 4.000 C 154.799 4.000,154.000 4.180,154.000 4.400 C 154.000 4.620,153.190 4.800,152.200 4.800 C 150.867 4.800,150.400 4.956,150.400 5.400 C 150.400 5.844,149.933 6.000,148.600 6.000 C 147.610 6.000,146.800 6.180,146.800 6.400 C 146.800 6.620,145.990 6.800,145.000 6.800 C 144.010 6.800,143.200 6.980,143.200 7.200 C 143.200 7.420,142.570 7.600,141.800 7.600 C 141.030 7.600,140.400 7.780,140.400 8.000 C 140.400 8.220,139.770 8.400,139.000 8.400 C 138.022 8.400,137.600 8.581,137.600 9.000 C 137.600 9.421,137.175 9.600,136.176 9.600 C 135.329 9.600,134.853 9.762,135.000 10.000 C 135.147 10.238,134.671 10.400,133.824 10.400 C 133.041 10.400,132.400 10.580,132.400 10.800 C 132.400 11.020,131.770 11.200,131.000 11.200 C 130.230 11.200,129.600 11.380,129.600 11.600 C 129.600 11.820,129.240 12.000,128.800 12.000 C 128.356 12.000,128.000 12.267,128.000 12.600 C 128.000 13.019,127.578 13.200,126.600 13.200 C 125.830 13.200,125.200 13.380,125.200 13.600 C 125.200 13.820,124.750 14.000,124.200 14.000 C 123.650 14.000,123.200 14.180,123.200 14.400 C 123.200 14.620,122.660 14.800,122.000 14.800 C 121.340 14.800,120.800 14.980,120.800 15.200 C 120.800 15.420,120.434 15.600,119.987 15.600 C 119.541 15.600,119.076 15.859,118.954 16.175 C 118.833 16.491,118.480 16.652,118.170 16.533 C 117.860 16.414,117.496 16.606,117.361 16.958 C 117.202 17.373,116.634 17.600,115.757 17.600 C 115.011 17.600,114.400 17.780,114.400 18.000 C 114.400 18.220,114.051 18.400,113.624 18.400 C 113.197 18.400,112.736 18.580,112.600 18.800 C 112.464 19.020,112.003 19.200,111.576 19.200 C 111.149 19.200,110.800 19.380,110.800 19.600 C 110.800 19.820,110.552 20.000,110.249 20.000 C 109.946 20.000,109.474 20.270,109.200 20.600 C 108.926 20.930,108.364 21.200,107.951 21.200 C 107.538 21.200,107.200 21.380,107.200 21.600 C 107.200 21.820,106.840 22.000,106.400 22.000 C 105.960 22.000,105.600 22.180,105.600 22.400 C 105.600 22.620,105.330 22.800,105.000 22.800 C 104.670 22.800,104.400 22.980,104.400 23.200 C 104.400 23.420,104.124 23.600,103.787 23.600 C 103.451 23.600,103.071 23.870,102.945 24.200 C 102.818 24.530,102.284 24.800,101.757 24.800 C 101.231 24.800,100.800 24.980,100.800 25.200 C 100.800 25.420,100.440 25.600,100.000 25.600 C 99.560 25.600,99.200 25.780,99.200 26.000 C 99.200 26.220,98.885 26.406,98.500 26.413 C 97.635 26.428,96.400 27.329,96.400 27.944 C 96.400 28.195,96.040 28.400,95.600 28.400 C 95.160 28.400,94.800 28.580,94.800 28.800 C 94.800 29.020,94.530 29.200,94.200 29.200 C 93.465 29.200,93.466 29.181,94.185 30.903 C 94.507 31.673,95.019 32.398,95.322 32.515 C 96.169 32.840,97.137 35.202,97.839 38.663 C 98.356 41.206,98.731 42.065,99.821 43.200 C 100.797 44.216,101.337 45.313,101.791 47.200 C 102.960 52.063,103.188 52.653,104.583 54.444 C 105.673 55.843,106.190 57.132,106.951 60.353 C 107.663 63.364,108.150 64.630,108.764 65.060 C 109.923 65.871,110.627 67.377,111.170 70.200 C 111.424 71.520,111.712 72.983,111.811 73.451 C 111.910 73.919,112.708 75.169,113.584 76.230 C 114.714 77.597,115.313 78.806,115.640 80.379 C 116.515 84.589,117.195 86.521,117.998 87.084 C 119.180 87.912,119.853 89.444,120.581 92.968 C 121.270 96.305,121.784 97.600,122.420 97.600 C 123.113 97.600,124.368 100.115,124.810 102.390 C 125.046 103.605,125.334 105.092,125.450 105.693 C 125.566 106.294,126.362 107.635,127.220 108.673 C 128.518 110.244,128.924 111.201,129.643 114.380 C 130.288 117.230,130.787 118.505,131.609 119.400 C 133.107 121.032,133.819 122.561,134.401 125.400 C 134.776 127.234,135.253 128.193,136.421 129.464 C 137.895 131.068,138.437 132.385,139.028 135.800 C 139.362 137.725,139.806 138.675,140.994 140.000 C 143.433 142.720,144.090 158.895,141.926 162.939 C 141.221 164.256,142.317 164.773,146.703 165.191 C 151.240 165.623,153.224 166.291,155.000 167.985 C 155.660 168.614,157.093 169.649,158.185 170.284 C 159.642 171.131,160.529 172.052,161.518 173.744 C 162.259 175.012,163.117 176.147,163.424 176.265 C 164.541 176.693,165.595 179.143,166.361 183.095 C 166.879 185.772,167.491 187.657,168.177 188.693 C 169.559 190.782,170.290 194.866,170.594 202.200 C 170.954 210.898,171.522 215.065,172.651 217.296 C 173.877 219.721,174.639 223.072,175.221 228.600 C 175.649 232.665,176.449 235.200,177.303 235.200 C 177.781 235.200,179.999 240.038,180.000 241.080 C 180.000 241.620,180.558 242.385,181.448 243.064 C 182.245 243.671,183.326 244.849,183.851 245.681 C 184.376 246.513,185.520 247.644,186.392 248.195 C 187.264 248.745,188.254 249.730,188.591 250.383 C 189.030 251.231,189.672 251.696,190.835 252.009 C 193.649 252.767,195.446 254.765,194.668 256.269 C 192.635 260.200,171.096 260.300,165.357 256.405 C 163.732 255.301,162.507 254.806,160.914 254.607 C 157.398 254.167,155.054 253.309,153.802 252.002 C 153.013 251.178,151.725 250.514,149.818 249.947 C 147.679 249.312,146.662 248.749,145.600 247.615 C 144.620 246.568,143.481 245.896,141.802 245.374 C 140.080 244.839,138.948 244.160,137.788 242.967 C 136.900 242.052,135.407 240.914,134.471 240.436 C 133.535 239.958,132.424 239.001,132.003 238.309 C 131.582 237.617,130.465 236.680,129.519 236.226 C 128.416 235.696,127.525 234.887,127.033 233.967 C 126.611 233.179,125.625 232.189,124.843 231.767 C 124.061 231.345,123.035 230.311,122.564 229.468 C 122.092 228.626,121.149 227.597,120.468 227.183 C 119.786 226.768,118.785 225.567,118.245 224.514 C 117.704 223.461,116.736 222.310,116.094 221.955 C 115.311 221.523,114.518 220.435,113.684 218.655 C 113.001 217.195,112.276 216.000,112.074 216.000 C 111.418 216.000,109.638 212.907,109.155 210.928 C 108.579 208.568,108.163 207.726,106.988 206.552 C 103.781 203.344,103.479 187.131,106.563 183.676 C 107.287 182.864,108.350 181.254,108.924 180.099 L 109.968 177.998 109.084 177.431 C 108.598 177.120,107.462 176.671,106.561 176.434 C 105.659 176.196,104.219 175.458,103.361 174.794 C 102.502 174.129,100.720 172.876,99.400 172.010 C 97.493 170.758,96.719 169.917,95.634 167.917 C 94.883 166.533,93.675 164.732,92.950 163.917 C 92.157 163.024,91.376 161.511,90.990 160.117 C 89.999 156.545,89.548 155.483,88.562 154.400 C 87.405 153.130,86.941 151.887,86.363 148.509 C 85.839 145.442,85.641 144.984,83.789 142.559 C 82.927 141.429,82.300 140.007,82.004 138.509 C 81.284 134.869,80.852 133.778,79.401 131.945 C 78.163 130.380,77.543 128.579,76.586 123.772 C 76.495 123.317,75.817 122.323,75.080 121.563 C 74.087 120.541,73.558 119.456,73.046 117.391 C 71.919 112.844,71.624 112.110,70.388 110.787 C 69.740 110.093,69.009 108.778,68.763 107.863 C 67.301 102.430,66.732 100.862,65.969 100.172 C 64.717 99.039,64.171 97.768,63.403 94.200 C 62.834 91.560,62.480 90.780,61.380 89.742 C 60.080 88.515,59.221 86.338,58.625 82.756 C 58.471 81.829,57.831 80.747,56.839 79.734 C 55.629 78.500,55.186 77.640,54.801 75.779 C 54.531 74.470,54.146 72.860,53.946 72.200 C 53.319 70.134,48.804 65.660,48.799 67.100 C 48.799 67.265,48.259 68.030,47.600 68.800 C 46.941 69.570,46.401 70.425,46.401 70.700 C 46.400 70.975,46.130 71.200,45.800 71.200 C 45.470 71.200,45.200 71.398,45.200 71.640 C 45.200 71.881,44.660 72.583,44.000 73.200 C 43.340 73.817,42.800 74.699,42.800 75.160 C 42.800 75.622,42.612 76.000,42.382 76.000 C 41.794 76.000,40.003 77.857,39.987 78.482 C 39.972 79.087,39.041 80.400,38.627 80.400 C 38.111 80.400,37.200 81.531,37.200 82.171 C 37.200 82.517,37.020 82.800,36.800 82.800 C 36.580 82.800,36.400 83.027,36.400 83.305 C 36.400 83.583,35.950 84.148,35.400 84.561 C 34.850 84.974,34.400 85.657,34.400 86.080 C 34.400 86.502,34.220 86.736,34.000 86.600 C 33.780 86.464,33.600 86.633,33.600 86.976 C 33.600 87.319,33.420 87.600,33.200 87.600 C 32.980 87.600,32.800 87.917,32.800 88.305 C 32.800 88.693,32.350 89.348,31.800 89.761 C 31.250 90.174,30.800 90.847,30.800 91.256 C 30.800 91.665,30.620 92.000,30.400 92.000 C 30.180 92.000,30.000 92.360,30.000 92.800 C 30.000 93.240,29.820 93.600,29.600 93.600 C 29.380 93.600,29.200 93.870,29.200 94.200 C 29.200 94.530,29.020 94.800,28.800 94.800 C 28.580 94.800,28.400 95.160,28.400 95.600 C 28.400 96.058,28.133 96.400,27.776 96.400 C 27.433 96.400,27.252 96.561,27.374 96.758 C 27.496 96.955,27.326 97.219,26.998 97.346 C 26.669 97.472,26.400 97.941,26.400 98.387 C 26.400 98.834,26.220 99.200,26.000 99.200 C 25.780 99.200,25.600 99.560,25.600 100.000 C 25.600 100.440,25.420 100.800,25.200 100.800 C 24.980 100.800,24.800 101.231,24.800 101.757 C 24.800 102.284,24.530 102.818,24.200 102.945 C 23.870 103.071,23.600 103.451,23.600 103.787 C 23.600 104.124,23.420 104.400,23.200 104.400 C 22.980 104.400,22.800 104.670,22.800 105.000 C 22.800 105.330,22.620 105.600,22.400 105.600 C 22.180 105.600,22.000 105.960,22.000 106.400 C 22.000 106.840,21.820 107.200,21.600 107.200 C 21.380 107.200,21.200 107.538,21.200 107.951 C 21.200 108.364,20.930 108.926,20.600 109.200 C 20.270 109.474,20.000 109.946,20.000 110.249 C 20.000 110.552,19.820 110.800,19.600 110.800 C 19.380 110.800,19.200 111.149,19.200 111.576 C 19.200 112.003,19.020 112.464,18.800 112.600 C 18.580 112.736,18.400 113.197,18.400 113.624 C 18.400 114.051,18.220 114.400,18.000 114.400 C 17.780 114.400,17.600 115.011,17.600 115.757 C 17.600 116.634,17.373 117.202,16.958 117.361 C 16.606 117.496,16.414 117.860,16.533 118.170 C 16.652 118.480,16.491 118.833,16.175 118.954 C 15.859 119.076,15.600 119.541,15.600 119.987 C 15.600 120.434,15.420 120.800,15.200 120.800 C 14.980 120.800,14.800 121.340,14.800 122.000 C 14.800 122.660,14.620 123.200,14.400 123.200 C 14.180 123.200,14.000 123.650,14.000 124.200 C 14.000 124.750,13.820 125.200,13.600 125.200 C 13.380 125.200,13.200 125.830,13.200 126.600 C 13.200 127.578,13.019 128.000,12.600 128.000 C 12.267 128.000,12.000 128.356,12.000 128.800 C 12.000 129.240,11.820 129.600,11.600 129.600 C 11.380 129.600,11.200 130.230,11.200 131.000 C 11.200 131.770,11.020 132.400,10.800 132.400 C 10.580 132.400,10.400 133.041,10.400 133.824 C 10.400 134.671,10.238 135.147,10.000 135.000 C 9.762 134.853,9.600 135.329,9.600 136.176 C 9.600 137.175,9.421 137.600,9.000 137.600 C 8.581 137.600,8.400 138.022,8.400 139.000 C 8.400 139.770,8.220 140.400,8.000 140.400 C 7.780 140.400,7.600 141.030,7.600 141.800 C 7.600 142.570,7.420 143.200,7.200 143.200 C 6.980 143.200,6.800 144.010,6.800 145.000 C 6.800 145.990,6.620 146.800,6.400 146.800 C 6.180 146.800,6.000 147.610,6.000 148.600 C 6.000 149.933,5.844 150.400,5.400 150.400 C 4.956 150.400,4.800 150.867,4.800 152.200 C 4.800 153.190,4.620 154.000,4.400 154.000 C 4.180 154.000,4.000 154.799,4.000 155.776 C 4.000 156.753,3.820 157.664,3.600 157.800 C 3.380 157.936,3.200 158.937,3.200 160.024 C 3.200 161.111,3.020 162.000,2.800 162.000 C 2.575 162.000,2.400 163.119,2.400 164.557 C 2.400 166.461,2.247 167.173,1.800 167.345 C 1.353 167.516,1.200 168.230,1.200 170.154 C 1.200 171.862,1.031 172.790,0.700 172.900 C -0.032 173.144,-0.032 226.856,0.700 227.100 C 1.031 227.210,1.200 228.138,1.200 229.846 C 1.200 231.770,1.353 232.484,1.800 232.655 C 2.247 232.827,2.400 233.539,2.400 235.443 C 2.400 236.881,2.575 238.000,2.800 238.000 C 3.020 238.000,3.200 238.979,3.200 240.176 C 3.200 241.373,3.380 242.464,3.600 242.600 C 3.820 242.736,4.000 243.557,4.000 244.424 C 4.000 245.291,4.180 246.000,4.400 246.000 C 4.620 246.000,4.800 246.810,4.800 247.800 C 4.800 249.133,4.956 249.600,5.400 249.600 C 5.844 249.600,6.000 250.067,6.000 251.400 C 6.000 252.390,6.180 253.200,6.400 253.200 C 6.620 253.200,6.800 254.010,6.800 255.000 C 6.800 255.990,6.980 256.800,7.200 256.800 C 7.420 256.800,7.600 257.430,7.600 258.200 C 7.600 258.970,7.780 259.600,8.000 259.600 C 8.220 259.600,8.400 260.230,8.400 261.000 C 8.400 261.978,8.581 262.400,9.000 262.400 C 9.419 262.400,9.600 262.822,9.600 263.800 C 9.600 264.570,9.780 265.200,10.000 265.200 C 10.220 265.200,10.400 265.740,10.400 266.400 C 10.400 267.060,10.580 267.600,10.800 267.600 C 11.020 267.600,11.200 268.230,11.200 269.000 C 11.200 269.770,11.380 270.400,11.600 270.400 C 11.820 270.400,12.000 270.760,12.000 271.200 C 12.000 271.644,12.267 272.000,12.600 272.000 C 13.019 272.000,13.200 272.422,13.200 273.400 C 13.200 274.170,13.380 274.800,13.600 274.800 C 13.820 274.800,14.000 275.250,14.000 275.800 C 14.000 276.350,14.180 276.800,14.400 276.800 C 14.620 276.800,14.800 277.340,14.800 278.000 C 14.800 278.660,14.980 279.200,15.200 279.200 C 15.420 279.200,15.600 279.566,15.600 280.013 C 15.600 280.459,15.859 280.924,16.175 281.046 C 16.491 281.167,16.652 281.520,16.533 281.830 C 16.414 282.140,16.606 282.504,16.958 282.639 C 17.373 282.798,17.600 283.366,17.600 284.243 C 17.600 284.989,17.780 285.600,18.000 285.600 C 18.220 285.600,18.400 285.949,18.400 286.376 C 18.400 286.803,18.580 287.264,18.800 287.400 C 19.020 287.536,19.200 287.997,19.200 288.424 C 19.200 288.851,19.380 289.200,19.600 289.200 C 19.820 289.200,20.000 289.448,20.000 289.751 C 20.000 290.054,20.270 290.526,20.600 290.800 C 20.930 291.074,21.200 291.636,21.200 292.049 C 21.200 292.462,21.380 292.800,21.600 292.800 C 21.820 292.800,22.000 293.160,22.000 293.600 C 22.000 294.040,22.180 294.400,22.400 294.400 C 22.620 294.400,22.800 294.670,22.800 295.000 C 22.800 295.330,22.980 295.600,23.200 295.600 C 23.420 295.600,23.600 295.876,23.600 296.213 C 23.600 296.549,23.870 296.929,24.200 297.055 C 24.530 297.182,24.800 297.716,24.800 298.243 C 24.800 298.769,24.980 299.200,25.200 299.200 C 25.420 299.200,25.600 299.560,25.600 300.000 C 25.600 300.440,25.780 300.800,26.000 300.800 C 26.220 300.800,26.406 301.115,26.413 301.500 C 26.428 302.365,27.329 303.600,27.944 303.600 C 28.195 303.600,28.400 303.960,28.400 304.400 C 28.400 304.840,28.580 305.200,28.800 305.200 C 29.020 305.200,29.200 305.470,29.200 305.800 C 29.200 306.130,29.380 306.400,29.600 306.400 C 29.820 306.400,30.000 306.760,30.000 307.200 C 30.000 307.640,30.180 308.000,30.400 308.000 C 30.620 308.000,30.800 308.335,30.800 308.744 C 30.800 309.153,31.250 309.826,31.800 310.239 C 32.350 310.652,32.800 311.307,32.800 311.695 C 32.800 312.083,32.980 312.400,33.200 312.400 C 33.420 312.400,33.600 312.670,33.600 313.000 C 33.600 313.330,33.780 313.600,34.000 313.600 C 34.220 313.600,34.400 313.845,34.400 314.144 C 34.400 314.443,34.850 315.026,35.400 315.439 C 35.950 315.852,36.400 316.417,36.400 316.695 C 36.400 316.973,36.580 317.200,36.800 317.200 C 37.020 317.200,37.200 317.483,37.200 317.829 C 37.200 318.547,38.134 319.600,38.771 319.600 C 39.007 319.600,39.200 319.870,39.200 320.200 C 39.200 320.530,39.380 320.800,39.600 320.800 C 39.820 320.800,40.000 321.085,40.000 321.433 C 40.000 321.782,40.630 322.679,41.400 323.426 C 42.170 324.174,42.800 325.019,42.800 325.305 C 42.800 325.590,43.160 326.083,43.600 326.400 C 44.040 326.717,44.400 327.130,44.400 327.317 C 44.400 327.799,45.461 328.800,45.971 328.800 C 46.207 328.800,46.400 329.036,46.400 329.325 C 46.400 329.613,46.760 330.236,47.200 330.708 C 47.640 331.180,48.000 331.677,48.000 331.812 C 48.000 332.228,49.117 333.200,49.595 333.200 C 49.844 333.200,49.936 333.380,49.800 333.600 C 49.664 333.820,49.756 334.000,50.005 334.000 C 50.484 334.000,51.600 334.973,51.600 335.390 C 51.600 335.711,53.489 337.600,53.810 337.600 C 54.266 337.600,55.030 338.590,55.543 339.847 C 55.823 340.532,56.491 341.328,57.026 341.614 C 57.562 341.901,58.000 342.260,58.000 342.413 C 58.000 342.928,60.104 344.800,60.683 344.800 C 61.257 344.800,62.400 345.725,62.400 346.190 C 62.400 346.511,64.289 348.400,64.610 348.400 C 64.949 348.400,66.000 349.478,66.000 349.825 C 66.000 350.126,66.626 350.701,69.026 352.600 C 69.859 353.260,70.767 354.025,71.042 354.300 C 71.318 354.575,71.663 354.800,71.811 354.800 C 71.958 354.800,72.583 355.340,73.200 356.000 C 73.817 356.660,74.699 357.200,75.160 357.200 C 75.622 357.200,76.000 357.388,76.000 357.618 C 76.000 358.206,77.857 359.997,78.482 360.013 C 79.087 360.028,80.400 360.959,80.400 361.373 C 80.400 361.889,81.531 362.800,82.171 362.800 C 82.517 362.800,82.800 362.980,82.800 363.200 C 82.800 363.420,83.027 363.600,83.305 363.600 C 83.583 363.600,84.148 364.050,84.561 364.600 C 84.974 365.150,85.657 365.600,86.080 365.600 C 86.502 365.600,86.736 365.780,86.600 366.000 C 86.464 366.220,86.633 366.400,86.976 366.400 C 87.319 366.400,87.600 366.580,87.600 366.800 C 87.600 367.020,87.917 367.200,88.305 367.200 C 88.693 367.200,89.348 367.650,89.761 368.200 C 90.174 368.750,90.847 369.200,91.256 369.200 C 91.665 369.200,92.000 369.380,92.000 369.600 C 92.000 369.820,92.360 370.000,92.800 370.000 C 93.240 370.000,93.600 370.180,93.600 370.400 C 93.600 370.620,93.870 370.800,94.200 370.800 C 94.530 370.800,94.800 370.980,94.800 371.200 C 94.800 371.420,95.160 371.600,95.600 371.600 C 96.040 371.600,96.400 371.805,96.400 372.056 C 96.400 372.671,97.635 373.572,98.500 373.587 C 98.885 373.594,99.200 373.780,99.200 374.000 C 99.200 374.220,99.560 374.400,100.000 374.400 C 100.440 374.400,100.800 374.580,100.800 374.800 C 100.800 375.020,101.250 375.200,101.800 375.200 C 102.422 375.200,102.800 375.427,102.800 375.800 C 102.800 376.133,103.156 376.400,103.600 376.400 C 104.040 376.400,104.400 376.580,104.400 376.800 C 104.400 377.020,104.670 377.200,105.000 377.200 C 105.330 377.200,105.600 377.380,105.600 377.600 C 105.600 377.820,105.960 378.000,106.400 378.000 C 106.840 378.000,107.200 378.180,107.200 378.400 C 107.200 378.620,107.538 378.800,107.951 378.800 C 108.364 378.800,108.926 379.070,109.200 379.400 C 109.474 379.730,109.946 380.000,110.249 380.000 C 110.552 380.000,110.800 380.180,110.800 380.400 C 110.800 380.620,111.149 380.800,111.576 380.800 C 112.003 380.800,112.464 380.980,112.600 381.200 C 112.736 381.420,113.197 381.600,113.624 381.600 C 114.051 381.600,114.400 381.780,114.400 382.000 C 114.400 382.220,115.030 382.400,115.800 382.400 C 116.778 382.400,117.200 382.581,117.200 383.000 C 117.200 383.333,117.556 383.600,118.000 383.600 C 118.440 383.600,118.800 383.780,118.800 384.000 C 118.800 384.220,119.250 384.400,119.800 384.400 C 120.350 384.400,120.800 384.580,120.800 384.800 C 120.800 385.020,121.340 385.200,122.000 385.200 C 122.660 385.200,123.200 385.380,123.200 385.600 C 123.200 385.820,123.650 386.000,124.200 386.000 C 124.750 386.000,125.200 386.180,125.200 386.400 C 125.200 386.620,125.830 386.800,126.600 386.800 C 127.578 386.800,128.000 386.981,128.000 387.400 C 128.000 387.733,128.356 388.000,128.800 388.000 C 129.240 388.000,129.600 388.180,129.600 388.400 C 129.600 388.620,130.230 388.800,131.000 388.800 C 131.770 388.800,132.400 388.980,132.400 389.200 C 132.400 389.420,133.041 389.600,133.824 389.600 C 134.671 389.600,135.147 389.762,135.000 390.000 C 134.853 390.238,135.329 390.400,136.176 390.400 C 137.175 390.400,137.600 390.579,137.600 391.000 C 137.600 391.419,138.022 391.600,139.000 391.600 C 139.770 391.600,140.400 391.780,140.400 392.000 C 140.400 392.220,141.030 392.400,141.800 392.400 C 142.570 392.400,143.200 392.580,143.200 392.800 C 143.200 393.020,144.010 393.200,145.000 393.200 C 145.990 393.200,146.800 393.380,146.800 393.600 C 146.800 393.820,147.610 394.000,148.600 394.000 C 149.933 394.000,150.400 394.156,150.400 394.600 C 150.400 395.044,150.867 395.200,152.200 395.200 C 153.190 395.200,154.000 395.380,154.000 395.600 C 154.000 395.820,154.810 396.000,155.800 396.000 C 156.790 396.000,157.600 396.180,157.600 396.400 C 157.600 396.620,158.590 396.800,159.800 396.800 C 161.010 396.800,162.000 396.980,162.000 397.200 C 162.000 397.425,163.119 397.600,164.557 397.600 C 166.461 397.600,167.173 397.753,167.345 398.200 C 167.516 398.647,168.230 398.800,170.154 398.800 C 171.754 398.800,172.792 398.976,172.888 399.264 C 173.001 399.603,178.216 399.772,192.421 399.895 L 211.800 400.062 210.511 399.244 C 209.803 398.794,208.998 398.066,208.724 397.626 C 208.377 397.072,207.301 396.622,205.212 396.159 C 203.555 395.792,201.529 395.330,200.709 395.133 C 199.890 394.936,198.436 394.097,197.480 393.269 C 196.090 392.066,195.193 391.663,193.010 391.261 C 189.849 390.679,188.226 389.927,186.773 388.372 C 186.157 387.711,185.102 387.147,184.168 386.977 C 181.987 386.580,179.782 385.400,178.492 383.937 C 177.892 383.256,176.644 382.372,175.719 381.972 C 174.616 381.495,173.683 380.682,173.004 379.607 C 172.436 378.706,171.565 377.815,171.069 377.626 C 169.901 377.182,169.279 376.407,168.171 374.015 C 167.673 372.942,166.893 371.864,166.437 371.620 C 162.510 369.518,162.497 345.106,166.422 340.637 C 167.406 339.515,167.739 338.565,168.366 335.088 C 169.168 330.641,169.554 329.602,171.001 328.000 C 172.056 326.832,172.645 325.062,172.999 322.000 C 173.368 318.808,174.321 315.609,175.392 313.963 C 178.030 309.911,178.018 294.059,175.374 291.576 C 174.505 290.759,173.508 288.276,172.414 284.200 C 172.117 283.092,171.589 282.352,170.695 281.794 C 169.978 281.345,169.028 280.191,168.553 279.192 C 167.966 277.954,167.263 277.187,166.290 276.724 C 165.451 276.323,164.514 275.400,163.976 274.443 C 163.399 273.417,162.698 272.750,162.036 272.599 C 160.617 272.275,159.812 271.608,158.928 270.026 C 158.515 269.287,157.643 268.391,156.989 268.034 C 152.907 265.808,152.400 265.426,152.400 264.576 C 152.400 263.214,155.872 261.861,158.774 262.091 C 160.879 262.259,161.900 262.626,165.200 264.405 C 166.165 264.925,168.433 265.350,172.500 265.774 C 178.625 266.413,179.971 266.781,182.513 268.512 C 183.346 269.079,184.516 269.633,185.113 269.744 C 185.711 269.855,187.448 270.164,188.973 270.432 C 191.275 270.836,192.025 271.175,193.390 272.434 C 194.295 273.267,196.090 274.344,197.381 274.827 C 199.136 275.484,200.359 276.347,202.237 278.252 C 203.618 279.654,204.946 280.800,205.188 280.800 C 205.430 280.800,206.337 282.264,207.202 284.054 C 208.068 285.844,209.120 287.549,209.540 287.843 C 210.634 288.610,211.458 290.969,211.760 294.200 C 212.370 300.736,212.941 304.380,213.798 307.200 C 214.300 308.850,215.010 312.540,215.378 315.400 C 216.902 327.261,217.083 328.054,218.548 329.262 C 219.423 329.983,220.183 331.195,220.772 332.811 C 221.339 334.365,222.371 336.043,223.587 337.385 C 224.643 338.551,225.717 340.142,225.974 340.921 C 226.317 341.960,226.781 342.453,227.720 342.778 C 228.424 343.021,229.810 344.085,230.800 345.144 C 232.354 346.805,233.072 347.216,236.058 348.156 C 237.960 348.755,239.848 349.611,240.254 350.059 C 241.424 351.353,242.110 351.576,246.227 352.003 C 251.596 352.560,258.461 351.915,260.400 350.672 C 262.778 349.147,264.042 348.741,268.781 347.976 C 271.959 347.462,273.673 346.986,274.381 346.420 C 276.621 344.626,278.671 343.878,283.280 343.172 C 287.133 342.582,288.171 342.274,289.046 341.462 C 292.428 338.327,315.326 338.424,318.188 341.586 C 318.632 342.077,319.867 342.494,321.735 342.783 C 329.030 343.913,329.649 344.084,331.471 345.475 C 332.458 346.228,333.712 347.014,334.257 347.222 C 334.802 347.429,335.137 347.779,335.000 347.999 C 334.864 348.220,334.952 348.400,335.195 348.400 C 335.658 348.400,337.600 346.615,337.600 346.190 C 337.600 345.733,338.738 344.800,339.296 344.800 C 339.832 344.800,340.694 344.098,342.061 342.549 C 342.424 342.137,343.189 341.376,343.761 340.858 C 344.332 340.340,344.800 339.652,344.800 339.329 C 344.800 338.745,345.720 337.600,346.190 337.600 C 346.511 337.600,348.400 335.711,348.400 335.390 C 348.400 335.069,349.469 334.000,349.790 334.000 C 350.092 334.000,352.000 332.120,352.000 331.821 C 352.000 331.577,353.361 329.932,354.700 328.559 C 355.195 328.052,355.600 327.488,355.600 327.306 C 355.600 327.125,355.960 326.717,356.400 326.400 C 356.840 326.083,357.200 325.503,357.200 325.112 C 357.200 324.720,357.470 324.400,357.800 324.400 C 358.130 324.400,358.400 324.170,358.400 323.888 C 358.400 323.607,358.760 323.117,359.200 322.800 C 359.640 322.483,360.000 321.903,360.000 321.512 C 360.000 321.120,360.180 320.800,360.400 320.800 C 360.620 320.800,360.800 320.530,360.800 320.200 C 360.800 319.870,360.993 319.600,361.229 319.600 C 361.866 319.600,362.800 318.547,362.800 317.829 C 362.800 317.483,362.980 317.200,363.200 317.200 C 363.420 317.200,363.600 316.973,363.600 316.695 C 363.600 316.417,364.050 315.852,364.600 315.439 C 365.150 315.026,365.600 314.443,365.600 314.144 C 365.600 313.845,365.780 313.600,366.000 313.600 C 366.220 313.600,366.400 313.330,366.400 313.000 C 366.400 312.670,366.580 312.400,366.800 312.400 C 367.020 312.400,367.200 312.083,367.200 311.695 C 367.200 311.307,367.650 310.652,368.200 310.239 C 368.750 309.826,369.200 309.153,369.200 308.744 C 369.200 308.335,369.380 308.000,369.600 308.000 C 369.820 308.000,370.000 307.640,370.000 307.200 C 370.000 306.760,370.180 306.400,370.400 306.400 C 370.620 306.400,370.800 306.130,370.800 305.800 C 370.800 305.470,370.980 305.200,371.200 305.200 C 371.420 305.200,371.600 304.840,371.600 304.400 C 371.600 303.960,371.805 303.600,372.056 303.600 C 372.671 303.600,373.572 302.365,373.587 301.500 C 373.594 301.115,373.780 300.800,374.000 300.800 C 374.220 300.800,374.400 300.440,374.400 300.000 C 374.400 299.560,374.580 299.200,374.800 299.200 C 375.020 299.200,375.200 298.750,375.200 298.200 C 375.200 297.578,375.427 297.200,375.800 297.200 C 376.133 297.200,376.400 296.844,376.400 296.400 C 376.400 295.960,376.580 295.600,376.800 295.600 C 377.020 295.600,377.200 295.330,377.200 295.000 C 377.200 294.670,377.380 294.400,377.600 294.400 C 377.820 294.400,378.000 294.040,378.000 293.600 C 378.000 293.160,378.180 292.800,378.400 292.800 C 378.620 292.800,378.800 292.462,378.800 292.049 C 378.800 291.636,379.070 291.074,379.400 290.800 C 379.730 290.526,380.000 290.054,380.000 289.751 C 380.000 289.448,380.180 289.200,380.400 289.200 C 380.620 289.200,380.800 288.851,380.800 288.424 C 380.800 287.997,380.980 287.536,381.200 287.400 C 381.420 287.264,381.600 286.803,381.600 286.376 C 381.600 285.949,381.780 285.600,382.000 285.600 C 382.220 285.600,382.400 284.970,382.400 284.200 C 382.400 283.222,382.581 282.800,383.000 282.800 C 383.333 282.800,383.600 282.444,383.600 282.000 C 383.600 281.560,383.780 281.200,384.000 281.200 C 384.220 281.200,384.400 280.750,384.400 280.200 C 384.400 279.650,384.580 279.200,384.800 279.200 C 385.020 279.200,385.200 278.660,385.200 278.000 C 385.200 277.340,385.380 276.800,385.600 276.800 C 385.820 276.800,386.000 276.350,386.000 275.800 C 386.000 275.250,386.180 274.800,386.400 274.800 C 386.620 274.800,386.800 274.170,386.800 273.400 C 386.800 272.422,386.981 272.000,387.400 272.000 C 387.733 272.000,388.000 271.644,388.000 271.200 C 388.000 270.760,388.180 270.400,388.400 270.400 C 388.620 270.400,388.800 269.770,388.800 269.000 C 388.800 268.230,388.980 267.600,389.200 267.600 C 389.420 267.600,389.600 267.060,389.600 266.400 C 389.600 265.740,389.780 265.200,390.000 265.200 C 390.220 265.200,390.400 264.570,390.400 263.800 C 390.400 262.822,390.581 262.400,391.000 262.400 C 391.419 262.400,391.600 261.978,391.600 261.000 C 391.600 260.230,391.780 259.600,392.000 259.600 C 392.220 259.600,392.400 258.970,392.400 258.200 C 392.400 257.430,392.580 256.800,392.800 256.800 C 393.020 256.800,393.200 255.990,393.200 255.000 C 393.200 254.010,393.380 253.200,393.600 253.200 C 393.820 253.200,394.000 252.390,394.000 251.400 C 394.000 250.067,394.156 249.600,394.600 249.600 C 395.044 249.600,395.200 249.133,395.200 247.800 C 395.200 246.810,395.380 246.000,395.600 246.000 C 395.820 246.000,396.000 245.291,396.000 244.424 C 396.000 243.557,396.180 242.736,396.400 242.600 C 396.620 242.464,396.800 241.373,396.800 240.176 C 396.800 238.979,396.980 238.000,397.200 238.000 C 397.425 238.000,397.600 236.881,397.600 235.443 C 397.600 233.539,397.753 232.827,398.200 232.655 C 398.647 232.484,398.800 231.770,398.800 229.846 C 398.800 228.138,398.969 227.210,399.300 227.100 C 399.693 226.969,399.800 221.191,399.800 200.000 C 399.800 178.809,399.693 173.031,399.300 172.900 C 398.969 172.790,398.800 171.862,398.800 170.154 C 398.800 168.230,398.647 167.516,398.200 167.345 C 397.753 167.173,397.600 166.461,397.600 164.557 C 397.600 163.119,397.425 162.000,397.200 162.000 C 396.980 162.000,396.800 161.010,396.800 159.800 C 396.800 158.590,396.620 157.600,396.400 157.600 C 396.180 157.600,396.000 156.790,396.000 155.800 C 396.000 154.810,395.820 154.000,395.600 154.000 C 395.380 154.000,395.200 153.190,395.200 152.200 C 395.200 150.867,395.044 150.400,394.600 150.400 C 394.156 150.400,394.000 149.933,394.000 148.600 C 394.000 147.610,393.820 146.800,393.600 146.800 C 393.380 146.800,393.200 145.990,393.200 145.000 C 393.200 144.010,393.020 143.200,392.800 143.200 C 392.580 143.200,392.400 142.570,392.400 141.800 C 392.400 141.030,392.220 140.400,392.000 140.400 C 391.780 140.400,391.600 139.770,391.600 139.000 C 391.600 138.022,391.419 137.600,391.000 137.600 C 390.579 137.600,390.400 137.175,390.400 136.176 C 390.400 135.329,390.238 134.853,390.000 135.000 C 389.762 135.147,389.600 134.671,389.600 133.824 C 389.600 133.041,389.420 132.400,389.200 132.400 C 388.980 132.400,388.800 131.770,388.800 131.000 C 388.800 130.230,388.620 129.600,388.400 129.600 C 388.180 129.600,388.000 129.240,388.000 128.800 C 388.000 128.356,387.733 128.000,387.400 128.000 C 386.981 128.000,386.800 127.578,386.800 126.600 C 386.800 125.830,386.620 125.200,386.400 125.200 C 386.180 125.200,386.000 124.750,386.000 124.200 C 386.000 123.650,385.820 123.200,385.600 123.200 C 385.380 123.200,385.200 122.660,385.200 122.000 C 385.200 121.340,385.020 120.800,384.800 120.800 C 384.580 120.800,384.400 120.350,384.400 119.800 C 384.400 119.250,384.220 118.800,384.000 118.800 C 383.780 118.800,383.600 118.440,383.600 118.000 C 383.600 117.556,383.333 117.200,383.000 117.200 C 382.581 117.200,382.400 116.778,382.400 115.800 C 382.400 115.030,382.220 114.400,382.000 114.400 C 381.780 114.400,381.600 114.051,381.600 113.624 C 381.600 113.197,381.420 112.736,381.200 112.600 C 380.980 112.464,380.800 112.003,380.800 111.576 C 380.800 111.149,380.620 110.800,380.400 110.800 C 380.180 110.800,380.000 110.552,380.000 110.249 C 380.000 109.946,379.730 109.474,379.400 109.200 C 379.070 108.926,378.800 108.364,378.800 107.951 C 378.800 107.538,378.620 107.200,378.400 107.200 C 378.180 107.200,378.000 106.840,378.000 106.400 C 378.000 105.960,377.820 105.600,377.600 105.600 C 377.380 105.600,377.200 105.330,377.200 105.000 C 377.200 104.670,377.020 104.400,376.800 104.400 C 376.580 104.400,376.400 104.040,376.400 103.600 C 376.400 103.156,376.133 102.800,375.800 102.800 C 375.427 102.800,375.200 102.422,375.200 101.800 C 375.200 101.250,375.020 100.800,374.800 100.800 C 374.580 100.800,374.400 100.440,374.400 100.000 C 374.400 99.560,374.220 99.200,374.000 99.200 C 373.780 99.200,373.594 98.885,373.587 98.500 C 373.572 97.635,372.671 96.400,372.056 96.400 C 371.805 96.400,371.600 96.040,371.600 95.600 C 371.600 95.160,371.420 94.800,371.200 94.800 C 370.980 94.800,370.800 94.530,370.800 94.200 C 370.800 93.870,370.620 93.600,370.400 93.600 C 370.180 93.600,370.000 93.240,370.000 92.800 C 370.000 92.360,369.820 92.000,369.600 92.000 C 369.380 92.000,369.200 91.665,369.200 91.256 C 369.200 90.847,368.750 90.174,368.200 89.761 C 367.650 89.348,367.200 88.693,367.200 88.305 C 367.200 87.917,367.020 87.600,366.800 87.600 C 366.580 87.600,366.400 87.319,366.400 86.976 C 366.400 86.633,366.220 86.464,366.000 86.600 C 365.780 86.736,365.600 86.502,365.600 86.080 C 365.600 85.657,365.150 84.974,364.600 84.561 C 364.050 84.148,363.600 83.583,363.600 83.305 C 363.600 83.027,363.420 82.800,363.200 82.800 C 362.980 82.800,362.800 82.517,362.800 82.171 C 362.800 81.531,361.889 80.400,361.373 80.400 C 360.959 80.400,360.028 79.087,360.013 78.482 C 359.997 77.857,358.206 76.000,357.618 76.000 C 357.388 76.000,357.200 75.622,357.200 75.160 C 357.200 74.699,356.660 73.817,356.000 73.200 C 355.340 72.583,354.800 71.958,354.800 71.811 C 354.800 71.663,354.575 71.318,354.300 71.042 C 354.025 70.767,353.260 69.859,352.600 69.026 C 350.701 66.626,350.126 66.000,349.825 66.000 C 349.478 66.000,348.400 64.949,348.400 64.610 C 348.400 64.289,346.511 62.400,346.190 62.400 C 345.725 62.400,344.800 61.257,344.800 60.683 C 344.800 60.104,342.928 58.000,342.413 58.000 C 342.260 58.000,341.901 57.562,341.614 57.026 C 341.328 56.491,340.532 55.823,339.847 55.543 C 338.590 55.030,337.600 54.266,337.600 53.810 C 337.600 53.489,335.711 51.600,335.390 51.600 C 334.973 51.600,334.000 50.484,334.000 50.005 C 334.000 49.756,333.820 49.664,333.600 49.800 C 333.380 49.936,333.200 49.844,333.200 49.595 C 333.200 49.117,332.228 48.000,331.812 48.000 C 331.677 48.000,331.180 47.640,330.708 47.200 C 330.236 46.760,329.613 46.400,329.325 46.400 C 329.036 46.400,328.800 46.207,328.800 45.971 C 328.800 45.461,327.799 44.400,327.317 44.400 C 327.130 44.400,326.717 44.040,326.400 43.600 C 326.083 43.160,325.590 42.800,325.305 42.800 C 325.019 42.800,324.174 42.170,323.426 41.400 C 322.679 40.630,321.782 40.000,321.433 40.000 C 321.085 40.000,320.800 39.820,320.800 39.600 C 320.800 39.380,320.530 39.200,320.200 39.200 C 319.870 39.200,319.600 39.007,319.600 38.771 C 319.600 38.134,318.547 37.200,317.829 37.200 C 317.483 37.200,317.200 37.020,317.200 36.800 C 317.200 36.580,316.973 36.400,316.695 36.400 C 316.417 36.400,315.852 35.950,315.439 35.400 C 315.026 34.850,314.443 34.400,314.144 34.400 C 313.845 34.400,313.600 34.220,313.600 34.000 C 313.600 33.780,313.330 33.600,313.000 33.600 C 312.670 33.600,312.400 33.420,312.400 33.200 C 312.400 32.980,312.083 32.800,311.695 32.800 C 311.307 32.800,310.652 32.350,310.239 31.800 C 309.826 31.250,309.153 30.800,308.744 30.800 C 308.335 30.800,308.000 30.620,308.000 30.400 C 308.000 30.180,307.640 30.000,307.200 30.000 C 306.760 30.000,306.400 29.820,306.400 29.600 C 306.400 29.380,306.130 29.200,305.800 29.200 C 305.470 29.200,305.200 29.020,305.200 28.800 C 305.200 28.580,304.840 28.400,304.400 28.400 C 303.960 28.400,303.600 28.195,303.600 27.944 C 303.600 27.329,302.365 26.428,301.500 26.413 C 301.115 26.406,300.800 26.220,300.800 26.000 C 300.800 25.780,300.440 25.600,300.000 25.600 C 299.560 25.600,299.200 25.420,299.200 25.200 C 299.200 24.980,298.769 24.800,298.243 24.800 C 297.716 24.800,297.182 24.530,297.055 24.200 C 296.929 23.870,296.549 23.600,296.213 23.600 C 295.876 23.600,295.600 23.420,295.600 23.200 C 295.600 22.980,295.330 22.800,295.000 22.800 C 294.670 22.800,294.400 22.620,294.400 22.400 C 294.400 22.180,294.040 22.000,293.600 22.000 C 293.160 22.000,292.800 21.820,292.800 21.600 C 292.800 21.380,292.462 21.200,292.049 21.200 C 291.636 21.200,291.074 20.930,290.800 20.600 C 290.526 20.270,290.054 20.000,289.751 20.000 C 289.448 20.000,289.200 19.820,289.200 19.600 C 289.200 19.380,288.851 19.200,288.424 19.200 C 287.997 19.200,287.536 19.020,287.400 18.800 C 287.264 18.580,286.803 18.400,286.376 18.400 C 285.949 18.400,285.600 18.220,285.600 18.000 C 285.600 17.780,284.989 17.600,284.243 17.600 C 283.366 17.600,282.798 17.373,282.639 16.958 C 282.504 16.606,282.140 16.414,281.830 16.533 C 281.520 16.652,281.167 16.491,281.046 16.175 C 280.924 15.859,280.459 15.600,280.013 15.600 C 279.566 15.600,279.200 15.420,279.200 15.200 C 279.200 14.980,278.660 14.800,278.000 14.800 C 277.340 14.800,276.800 14.620,276.800 14.400 C 276.800 14.180,276.350 14.000,275.800 14.000 C 275.250 14.000,274.800 13.820,274.800 13.600 C 274.800 13.380,274.170 13.200,273.400 13.200 C 272.422 13.200,272.000 13.019,272.000 12.600 C 272.000 12.267,271.644 12.000,271.200 12.000 C 270.760 12.000,270.400 11.820,270.400 11.600 C 270.400 11.380,269.770 11.200,269.000 11.200 C 268.230 11.200,267.600 11.020,267.600 10.800 C 267.600 10.580,267.060 10.400,266.400 10.400 C 265.740 10.400,265.200 10.220,265.200 10.000 C 265.200 9.780,264.570 9.600,263.800 9.600 C 262.822 9.600,262.400 9.419,262.400 9.000 C 262.400 8.581,261.978 8.400,261.000 8.400 C 260.230 8.400,259.600 8.220,259.600 8.000 C 259.600 7.780,258.970 7.600,258.200 7.600 C 257.430 7.600,256.800 7.420,256.800 7.200 C 256.800 6.980,255.990 6.800,255.000 6.800 C 254.010 6.800,253.200 6.620,253.200 6.400 C 253.200 6.180,252.390 6.000,251.400 6.000 C 250.067 6.000,249.600 5.844,249.600 5.400 C 249.600 4.956,249.133 4.800,247.800 4.800 C 246.810 4.800,246.000 4.620,246.000 4.400 C 246.000 4.180,245.291 4.000,244.424 4.000 C 243.557 4.000,242.736 3.820,242.600 3.600 C 242.464 3.380,241.373 3.200,240.176 3.200 C 238.979 3.200,238.000 3.020,238.000 2.800 C 238.000 2.575,236.881 2.400,235.443 2.400 C 233.539 2.400,232.827 2.247,232.655 1.800 C 232.484 1.353,231.770 1.200,229.846 1.200 C 228.188 1.200,227.209 1.028,227.106 0.718 C 226.947 0.240,187.160 -0.112,176.900 0.274 " stroke="none" fill="#74d4bc" fillRule="evenodd"></path></g></svg>