<svg id="svg" version="1.1" xmlns="http://www.w3.org/2000/svg" xmlns:xlink="http://www.w3.org/1999/xlink" width="400" height="400" viewBox="0, 0, 400,400"><g id="svgg"><path id="path0" d="M116.800 7.800 C 116.250 8.114,115.980 8.372,116.200 8.372 C 116.420 8.372,117.050 8.114,117.600 7.800 C 118.150 7.486,118.420 7.228,118.200 7.228 C 117.980 7.228,117.350 7.486,116.800 7.800 M282.400 7.800 C 282.950 8.114,283.580 8.372,283.800 8.372 C 284.020 8.372,283.750 8.114,283.200 7.800 C 282.650 7.486,282.020 7.228,281.800 7.228 C 281.580 7.228,281.850 7.486,282.400 7.800 M285.200 9.000 C 285.750 9.314,286.380 9.572,286.600 9.572 C 286.820 9.572,286.550 9.314,286.000 9.000 C 285.450 8.686,284.820 8.428,284.600 8.428 C 284.380 8.428,284.650 8.686,285.200 9.000 M113.200 9.400 C 112.650 9.714,112.380 9.972,112.600 9.972 C 112.820 9.972,113.450 9.714,114.000 9.400 C 114.550 9.086,114.820 8.828,114.600 8.828 C 114.380 8.828,113.750 9.086,113.200 9.400 M104.700 13.424 C 101.895 14.844,99.600 16.096,99.600 16.206 C 99.600 16.385,109.960 11.332,110.367 10.955 C 110.998 10.369,109.102 11.195,104.700 13.424 M289.633 10.955 C 290.040 11.332,300.400 16.385,300.400 16.206 C 300.400 15.985,290.175 10.800,289.739 10.800 C 289.589 10.800,289.542 10.870,289.633 10.955 M97.900 17.029 C 96.405 17.840,96.496 18.178,98.000 17.400 C 98.660 17.059,99.200 16.694,99.200 16.590 C 99.200 16.332,99.157 16.347,97.900 17.029 M301.600 16.979 C 301.600 17.089,302.140 17.459,302.800 17.800 C 303.460 18.141,304.000 18.331,304.000 18.221 C 304.000 18.111,303.460 17.741,302.800 17.400 C 302.140 17.059,301.600 16.869,301.600 16.979 M91.400 20.668 C 88.760 22.124,85.333 24.020,83.785 24.880 C 72.363 31.230,52.296 48.919,42.649 61.144 C 34.567 71.386,34.188 72.023,40.788 64.271 C 42.816 61.889,44.578 60.045,44.705 60.171 C 44.988 60.454,46.400 59.223,46.400 58.694 C 46.400 58.483,46.046 58.736,45.613 59.256 C 45.181 59.775,44.821 60.009,44.813 59.775 C 44.795 59.182,47.067 57.066,47.844 56.952 C 48.351 56.878,48.309 57.045,47.642 57.755 C 46.651 58.810,46.560 59.267,47.405 58.943 C 47.842 58.775,47.939 58.894,47.755 59.372 C 47.588 59.809,47.688 59.993,48.051 59.916 C 48.399 59.843,48.557 60.093,48.483 60.600 C 48.385 61.273,48.437 61.305,48.814 60.800 C 49.069 60.457,49.334 60.374,49.432 60.606 C 49.527 60.829,50.529 61.999,51.659 63.206 C 54.149 65.865,55.884 68.504,58.192 73.141 C 62.050 80.893,82.735 128.852,90.591 148.258 C 96.691 163.329,98.921 166.666,106.007 171.332 C 113.174 176.051,113.673 177.505,110.733 185.096 C 107.683 192.972,108.194 199.472,112.581 208.562 C 122.478 229.072,145.858 247.193,170.727 253.629 C 182.330 256.631,185.187 254.697,179.961 247.377 C 173.103 237.773,170.188 229.110,167.788 211.200 C 163.681 180.558,160.190 173.704,146.200 168.819 C 139.451 166.462,137.660 164.326,138.160 159.231 C 139.323 147.384,138.542 143.505,132.313 130.200 C 130.769 126.900,128.611 122.130,127.518 119.600 C 122.661 108.351,97.754 48.850,92.372 35.637 C 91.525 33.557,90.736 32.204,90.305 32.091 C 89.922 31.991,89.708 31.750,89.828 31.555 C 89.949 31.360,89.885 31.200,89.688 31.200 C 89.490 31.200,89.112 30.725,88.847 30.144 C 88.583 29.564,87.924 28.741,87.383 28.315 C 86.358 27.509,86.096 26.800,86.824 26.800 C 87.057 26.800,87.119 27.008,86.962 27.262 C 86.784 27.550,86.852 27.615,87.145 27.434 C 87.726 27.075,87.354 26.400,86.576 26.400 C 86.259 26.400,86.000 26.130,86.000 25.800 C 86.000 25.470,85.824 25.200,85.610 25.200 C 85.359 25.200,85.356 25.557,85.600 26.200 C 85.809 26.750,85.826 27.200,85.637 27.200 C 84.776 27.200,84.935 25.204,85.843 24.609 C 86.883 23.927,87.738 23.773,86.800 24.437 C 86.267 24.814,86.267 24.841,86.800 24.680 C 87.130 24.581,87.359 24.310,87.309 24.078 C 87.260 23.846,89.285 22.447,91.809 20.969 C 95.733 18.672,96.815 17.959,96.300 18.010 C 96.245 18.015,94.040 19.211,91.400 20.668 M304.400 18.579 C 304.400 18.689,304.940 19.059,305.600 19.400 C 306.260 19.741,306.800 19.931,306.800 19.821 C 306.800 19.711,306.260 19.341,305.600 19.000 C 304.940 18.659,304.400 18.469,304.400 18.579 M309.800 21.807 C 310.240 22.166,310.960 22.635,311.400 22.851 L 312.200 23.244 311.400 22.593 C 310.960 22.234,310.240 21.765,309.800 21.549 L 309.000 21.156 309.800 21.807 M312.600 23.489 C 312.820 23.712,314.972 25.208,317.383 26.812 C 319.794 28.417,323.979 31.406,326.683 33.455 C 332.366 37.761,333.245 38.159,328.088 34.091 C 323.667 30.604,311.207 22.074,312.600 23.489 M332.000 37.322 C 332.000 37.419,333.665 38.909,335.700 40.632 C 341.534 45.570,353.252 57.271,358.502 63.400 C 363.634 69.391,365.292 71.184,363.310 68.600 C 356.798 60.112,332.000 35.339,332.000 37.322 M33.800 72.400 C 32.784 73.720,32.043 74.800,32.153 74.800 C 32.263 74.800,33.184 73.720,34.200 72.400 C 35.216 71.080,35.957 70.000,35.847 70.000 C 35.737 70.000,34.816 71.080,33.800 72.400 M365.375 71.732 C 365.991 72.539,366.576 73.200,366.675 73.200 C 366.953 73.200,365.221 70.860,364.709 70.544 C 364.459 70.389,364.759 70.924,365.375 71.732 M367.775 74.932 C 368.391 75.739,368.976 76.400,369.075 76.400 C 369.353 76.400,367.621 74.060,367.109 73.744 C 366.859 73.589,367.159 74.124,367.775 74.932 M29.293 78.500 C 27.995 80.315,26.786 82.070,26.607 82.400 C 26.047 83.435,26.965 82.337,28.613 80.000 C 29.466 78.790,30.599 77.215,31.130 76.500 C 31.661 75.785,31.996 75.200,31.875 75.200 C 31.754 75.200,30.592 76.685,29.293 78.500 M370.000 78.000 C 370.470 78.660,370.944 79.200,371.054 79.200 C 371.164 79.200,370.870 78.660,370.400 78.000 C 369.930 77.340,369.456 76.800,369.346 76.800 C 369.236 76.800,369.530 77.340,370.000 78.000 M373.055 82.400 C 374.080 83.940,374.992 85.200,375.082 85.200 C 375.295 85.200,374.998 84.701,373.115 81.900 C 372.266 80.635,371.485 79.600,371.382 79.600 C 371.278 79.600,372.031 80.860,373.055 82.400 M377.149 88.600 C 377.365 89.040,377.834 89.760,378.193 90.200 L 378.844 91.000 378.451 90.200 C 378.235 89.760,377.766 89.040,377.407 88.600 L 376.756 87.800 377.149 88.600 M379.787 93.000 C 380.403 94.100,381.092 95.180,381.319 95.400 C 381.546 95.620,381.228 94.900,380.613 93.800 C 379.997 92.700,379.308 91.620,379.081 91.400 C 378.854 91.180,379.172 91.900,379.787 93.000 M18.600 95.200 C 18.259 95.860,18.069 96.400,18.179 96.400 C 18.289 96.400,18.659 95.860,19.000 95.200 C 19.341 94.540,19.531 94.000,19.421 94.000 C 19.311 94.000,18.941 94.540,18.600 95.200 M382.400 97.600 C 382.849 98.480,383.306 99.200,383.416 99.200 C 383.526 99.200,383.249 98.480,382.800 97.600 C 382.351 96.720,381.894 96.000,381.784 96.000 C 381.674 96.000,381.951 96.720,382.400 97.600 M16.800 98.400 C 16.351 99.280,16.074 100.000,16.184 100.000 C 16.294 100.000,16.751 99.280,17.200 98.400 C 17.649 97.520,17.926 96.800,17.816 96.800 C 17.706 96.800,17.249 97.520,16.800 98.400 M386.286 104.982 C 387.762 107.943,389.032 110.302,389.108 110.225 C 389.285 110.048,384.064 99.600,383.799 99.600 C 383.692 99.600,384.811 102.022,386.286 104.982 M13.379 104.842 C 12.373 106.845,11.614 108.548,11.693 108.626 C 11.771 108.704,12.681 107.066,13.715 104.984 C 14.749 102.903,15.508 101.200,15.401 101.200 C 15.295 101.200,14.385 102.839,13.379 104.842 M9.665 112.617 C 8.995 114.088,9.123 114.402,9.847 113.065 C 10.186 112.440,10.388 111.854,10.296 111.763 C 10.205 111.671,9.921 112.056,9.665 112.617 M7.654 117.162 C 6.475 119.903,6.619 120.299,7.828 117.638 C 8.368 116.449,8.742 115.408,8.659 115.326 C 8.577 115.243,8.124 116.070,7.654 117.162 M391.628 116.200 C 391.628 116.420,391.886 117.050,392.200 117.600 C 392.514 118.150,392.772 118.420,392.772 118.200 C 392.772 117.980,392.514 117.350,392.200 116.800 C 391.886 116.250,391.628 115.980,391.628 116.200 M170.614 271.340 C 169.539 272.126,170.020 273.874,172.258 277.321 C 183.260 294.259,183.542 305.344,173.655 332.052 C 161.509 364.860,165.999 375.573,197.503 388.949 C 206.109 392.602,213.083 396.493,215.842 399.180 C 216.672 399.988,217.031 400.000,240.459 400.000 L 264.233 400.000 269.417 398.250 C 297.618 388.726,327.825 370.374,343.237 353.400 C 346.194 350.143,345.932 349.983,342.745 353.100 C 340.102 355.686,338.699 356.735,339.400 355.600 C 339.802 354.949,339.343 355.144,338.749 355.877 C 338.276 356.460,338.283 356.507,338.800 356.217 C 339.130 356.031,338.780 356.537,338.022 357.340 C 336.190 359.280,335.865 358.955,337.370 356.688 C 338.301 355.285,337.942 354.884,336.563 355.787 C 335.979 356.170,335.627 356.279,335.781 356.030 C 336.058 355.583,334.526 353.913,332.773 352.749 C 332.281 352.422,331.846 351.728,331.808 351.207 C 331.755 350.487,331.361 350.131,330.169 349.728 C 329.306 349.435,327.880 348.856,327.000 348.441 C 321.769 345.973,310.121 343.605,303.200 343.604 C 296.157 343.602,289.980 345.021,275.279 350.018 C 247.710 359.388,233.096 356.600,220.396 339.548 C 213.564 330.376,211.399 323.519,209.360 304.600 C 207.896 291.016,203.284 282.968,193.800 277.448 C 186.168 273.005,173.059 269.552,170.614 271.340 M6.828 280.492 C 6.782 280.965,8.086 284.048,8.258 283.875 C 8.345 283.788,8.066 282.925,7.637 281.958 C 7.208 280.991,6.844 280.331,6.828 280.492 M388.075 291.419 C 386.870 293.900,387.005 294.247,388.246 291.861 C 388.801 290.794,389.187 289.853,389.103 289.770 C 389.019 289.686,388.557 290.428,388.075 291.419 M11.200 290.539 C 11.200 290.975,15.985 300.400,16.206 300.400 C 16.385 300.400,11.731 290.840,11.354 290.433 C 11.269 290.342,11.200 290.389,11.200 290.539 M384.600 298.400 C 384.043 299.500,383.677 300.400,383.787 300.400 C 383.897 300.400,384.443 299.500,385.000 298.400 C 385.557 297.300,385.923 296.400,385.813 296.400 C 385.703 296.400,385.157 297.300,384.600 298.400 M17.200 302.400 C 17.649 303.280,18.106 304.000,18.216 304.000 C 18.326 304.000,18.049 303.280,17.600 302.400 C 17.151 301.520,16.694 300.800,16.584 300.800 C 16.474 300.800,16.751 301.520,17.200 302.400 M382.000 303.200 C 381.551 304.080,381.274 304.800,381.384 304.800 C 381.494 304.800,381.951 304.080,382.400 303.200 C 382.849 302.320,383.126 301.600,383.016 301.600 C 382.906 301.600,382.449 302.320,382.000 303.200 M20.677 308.401 C 21.295 309.501,22.136 310.806,22.547 311.301 L 23.295 312.200 22.714 311.200 C 22.394 310.650,21.635 309.345,21.028 308.300 C 20.421 307.255,19.841 306.400,19.739 306.400 C 19.637 306.400,20.059 307.300,20.677 308.401 M373.323 317.192 C 371.112 320.488,369.466 323.083,369.666 322.959 C 370.204 322.626,377.813 311.200,377.496 311.200 C 377.412 311.200,375.535 313.896,373.323 317.192 M25.806 316.400 C 26.424 317.546,30.456 323.200,30.655 323.200 C 30.765 323.200,29.824 321.715,28.563 319.900 C 26.302 316.645,25.148 315.180,25.806 316.400 M31.591 324.788 C 32.057 325.441,32.642 326.102,32.891 326.256 C 33.141 326.411,32.841 325.876,32.225 325.068 C 30.888 323.315,30.384 323.092,31.591 324.788 M364.577 329.300 C 362.650 331.775,361.365 333.558,361.722 333.263 C 362.477 332.638,368.536 324.800,368.263 324.800 C 368.163 324.800,366.504 326.825,364.577 329.300 M33.485 327.300 C 40.467 336.414,47.609 344.284,56.740 352.927 C 61.587 357.516,68.000 363.069,68.000 362.678 C 68.000 362.581,66.335 361.091,64.300 359.368 C 55.817 352.187,41.992 337.795,35.417 329.300 C 34.353 327.925,33.396 326.800,33.292 326.800 C 33.188 326.800,33.274 327.025,33.485 327.300 M358.383 336.900 C 357.015 338.495,353.888 341.870,351.433 344.400 C 348.979 346.930,346.823 349.270,346.642 349.600 C 346.274 350.269,349.276 347.245,354.404 341.780 C 358.105 337.835,361.392 334.000,361.073 334.000 C 360.962 334.000,359.752 335.305,358.383 336.900 M70.552 364.722 C 71.098 365.606,84.132 374.895,87.200 376.587 C 88.728 377.429,86.688 375.900,83.200 373.589 C 81.110 372.204,77.357 369.557,74.859 367.707 C 72.362 365.857,70.423 364.514,70.552 364.722 M88.800 377.533 C 89.943 378.479,92.800 380.144,92.800 379.865 C 92.800 379.763,92.199 379.325,91.465 378.892 C 90.731 378.459,89.606 377.789,88.965 377.405 L 87.800 376.705 88.800 377.533 M93.200 380.179 C 93.200 380.289,93.740 380.659,94.400 381.000 C 95.060 381.341,95.600 381.531,95.600 381.421 C 95.600 381.311,95.060 380.941,94.400 380.600 C 93.740 380.259,93.200 380.069,93.200 380.179 M96.000 381.779 C 96.000 381.889,96.540 382.259,97.200 382.600 C 97.860 382.941,98.400 383.131,98.400 383.021 C 98.400 382.911,97.860 382.541,97.200 382.200 C 96.540 381.859,96.000 381.669,96.000 381.779 M99.600 383.787 C 99.600 383.897,100.500 384.443,101.600 385.000 C 102.700 385.557,103.600 385.923,103.600 385.813 C 103.600 385.703,102.700 385.157,101.600 384.600 C 100.500 384.043,99.600 383.677,99.600 383.787 M109.200 388.800 C 110.410 389.439,111.580 389.962,111.800 389.962 C 112.020 389.962,111.210 389.439,110.000 388.800 C 108.790 388.161,107.620 387.638,107.400 387.638 C 107.180 387.638,107.990 388.161,109.200 388.800 M114.000 391.000 C 114.550 391.314,115.180 391.572,115.400 391.572 C 115.620 391.572,115.350 391.314,114.800 391.000 C 114.250 390.686,113.620 390.428,113.400 390.428 C 113.180 390.428,113.450 390.686,114.000 391.000 M130.200 397.355 C 130.860 397.655,131.850 398.011,132.400 398.146 C 133.203 398.343,133.164 398.284,132.200 397.845 C 131.540 397.545,130.550 397.189,130.000 397.054 C 129.197 396.857,129.236 396.916,130.200 397.355 M136.000 399.400 C 136.770 399.697,137.670 399.939,138.000 399.939 C 138.330 399.939,137.970 399.697,137.200 399.400 C 136.430 399.103,135.530 398.861,135.200 398.861 C 134.870 398.861,135.230 399.103,136.000 399.400 " stroke="none" fill="#f9fbfb" fill-rule="evenodd"></path><path id="path1" d="M134.200 0.483 C 115.825 6.853,89.775 19.255,85.400 23.716 C 85.014 24.110,90.608 21.216,94.500 19.009 C 95.545 18.417,96.400 18.010,96.400 18.106 C 96.400 18.203,94.334 19.491,91.809 20.969 C 89.285 22.447,87.260 23.846,87.309 24.078 C 87.359 24.310,87.130 24.581,86.800 24.680 C 86.267 24.841,86.267 24.814,86.800 24.437 C 87.738 23.773,86.883 23.927,85.843 24.609 C 84.935 25.204,84.776 27.200,85.637 27.200 C 85.826 27.200,85.809 26.750,85.600 26.200 C 85.356 25.557,85.359 25.200,85.610 25.200 C 85.824 25.200,86.000 25.470,86.000 25.800 C 86.000 26.130,86.259 26.400,86.576 26.400 C 87.354 26.400,87.726 27.075,87.145 27.434 C 86.852 27.615,86.784 27.550,86.962 27.262 C 87.119 27.008,87.057 26.800,86.824 26.800 C 86.096 26.800,86.358 27.509,87.383 28.315 C 87.924 28.741,88.583 29.564,88.847 30.144 C 89.112 30.725,89.490 31.200,89.688 31.200 C 89.885 31.200,89.949 31.360,89.828 31.555 C 89.708 31.750,89.922 31.991,90.305 32.091 C 90.736 32.204,91.525 33.557,92.372 35.637 C 97.754 48.850,122.661 108.351,127.518 119.600 C 128.611 122.130,130.769 126.900,132.313 130.200 C 138.542 143.505,139.323 147.384,138.160 159.231 C 137.660 164.326,139.451 166.462,146.200 168.819 C 160.190 173.704,163.681 180.558,167.788 211.200 C 170.188 229.110,173.103 237.773,179.961 247.377 C 185.187 254.697,182.330 256.631,170.727 253.629 C 145.858 247.193,122.478 229.072,112.581 208.562 C 108.194 199.472,107.683 192.972,110.733 185.096 C 113.673 177.505,113.174 176.051,106.007 171.332 C 98.921 166.666,96.691 163.329,90.591 148.258 C 82.735 128.852,62.050 80.893,58.192 73.141 C 55.884 68.504,54.149 65.865,51.659 63.206 C 50.529 61.999,49.527 60.829,49.432 60.606 C 49.334 60.374,49.069 60.457,48.814 60.800 C 48.437 61.305,48.385 61.273,48.483 60.600 C 48.557 60.093,48.399 59.843,48.051 59.916 C 47.688 59.993,47.588 59.809,47.755 59.372 C 47.939 58.894,47.842 58.775,47.405 58.943 C 46.560 59.267,46.651 58.810,47.642 57.755 C 48.309 57.045,48.351 56.878,47.844 56.952 C 47.067 57.066,44.795 59.182,44.813 59.775 C 44.821 60.009,45.181 59.775,45.613 59.256 C 46.046 58.736,46.400 58.483,46.400 58.694 C 46.400 59.223,44.988 60.454,44.705 60.171 C 44.578 60.045,42.816 61.889,40.788 64.271 C 34.321 71.865,34.659 71.285,42.490 61.340 C 44.630 58.623,46.310 56.400,46.225 56.400 C 45.953 56.400,37.044 66.858,34.129 70.600 C 20.279 88.377,8.895 109.660,1.437 131.719 L 0.007 135.946 0.007 200.000 L 0.007 264.054 1.448 268.327 C 22.123 329.642,69.508 377.328,130.531 398.230 C 135.266 399.852,139.558 400.770,136.000 399.400 C 134.074 398.658,135.047 398.660,137.229 399.403 C 140.196 400.412,216.938 400.102,215.800 399.085 C 212.595 396.223,205.901 392.514,197.503 388.949 C 165.999 375.573,161.509 364.860,173.655 332.052 C 183.542 305.344,183.260 294.259,172.258 277.321 C 168.037 270.821,169.891 269.476,179.657 271.952 C 199.045 276.867,207.356 286.002,209.360 304.600 C 211.399 323.519,213.564 330.376,220.396 339.548 C 233.096 356.600,247.710 359.388,275.279 350.018 C 289.980 345.021,296.157 343.602,303.200 343.604 C 310.121 343.605,321.769 345.973,327.000 348.441 C 327.880 348.856,329.306 349.435,330.169 349.728 C 331.361 350.131,331.755 350.487,331.808 351.207 C 331.846 351.728,332.281 352.422,332.773 352.749 C 334.526 353.913,336.058 355.583,335.781 356.030 C 335.627 356.279,335.979 356.170,336.563 355.787 C 337.942 354.884,338.301 355.285,337.370 356.688 C 336.141 358.538,336.372 358.984,337.828 357.573 C 339.194 356.249,339.562 355.729,338.800 356.200 C 338.149 356.602,338.344 356.143,339.077 355.549 C 339.537 355.176,339.657 355.160,339.453 355.500 C 338.723 356.716,340.005 355.781,342.745 353.100 C 345.856 350.056,346.253 350.120,343.366 353.200 C 339.554 357.266,339.658 357.564,343.603 353.878 C 368.069 331.014,386.689 302.392,397.854 270.488 L 399.993 264.376 399.993 200.218 C 399.993 126.986,400.472 136.368,396.143 124.831 C 382.328 88.013,358.790 56.466,327.200 32.431 C 310.438 19.677,289.954 8.827,269.066 1.637 L 264.332 0.007 199.866 0.037 C 156.349 0.057,135.010 0.202,134.200 0.483 M117.600 7.800 C 117.050 8.114,116.420 8.372,116.200 8.372 C 115.980 8.372,116.250 8.114,116.800 7.800 C 117.350 7.486,117.980 7.228,118.200 7.228 C 118.420 7.228,118.150 7.486,117.600 7.800 M283.200 7.800 C 283.750 8.114,284.020 8.372,283.800 8.372 C 283.580 8.372,282.950 8.114,282.400 7.800 C 281.850 7.486,281.580 7.228,281.800 7.228 C 282.020 7.228,282.650 7.486,283.200 7.800 M286.000 9.000 C 286.550 9.314,286.820 9.572,286.600 9.572 C 286.380 9.572,285.750 9.314,285.200 9.000 C 284.650 8.686,284.380 8.428,284.600 8.428 C 284.820 8.428,285.450 8.686,286.000 9.000 M114.000 9.400 C 113.450 9.714,112.820 9.972,112.600 9.972 C 112.380 9.972,112.650 9.714,113.200 9.400 C 113.750 9.086,114.380 8.828,114.600 8.828 C 114.820 8.828,114.550 9.086,114.000 9.400 M110.367 10.955 C 109.960 11.332,99.600 16.385,99.600 16.206 C 99.600 15.967,109.639 10.851,110.167 10.821 C 110.368 10.809,110.458 10.870,110.367 10.955 M295.206 13.403 C 298.063 14.834,300.400 16.096,300.400 16.206 C 300.400 16.385,290.040 11.332,289.633 10.955 C 289.056 10.419,290.640 11.115,295.206 13.403 M99.200 16.590 C 99.200 16.694,98.660 17.059,98.000 17.400 C 96.496 18.178,96.405 17.840,97.900 17.029 C 99.157 16.347,99.200 16.332,99.200 16.590 M304.000 18.221 C 304.000 18.331,303.460 18.141,302.800 17.800 C 302.140 17.459,301.600 17.089,301.600 16.979 C 301.600 16.869,302.140 17.059,302.800 17.400 C 303.460 17.741,304.000 18.111,304.000 18.221 M306.800 19.821 C 306.800 19.931,306.260 19.741,305.600 19.400 C 304.940 19.059,304.400 18.689,304.400 18.579 C 304.400 18.469,304.940 18.659,305.600 19.000 C 306.260 19.341,306.800 19.711,306.800 19.821 M311.400 22.593 L 312.200 23.244 311.400 22.851 C 310.960 22.635,310.240 22.166,309.800 21.807 L 309.000 21.156 309.800 21.549 C 310.240 21.765,310.960 22.234,311.400 22.593 M318.988 27.524 C 324.129 31.017,331.600 36.643,331.600 37.021 C 331.600 37.109,329.387 35.504,326.683 33.455 C 323.979 31.406,319.794 28.417,317.383 26.812 C 314.972 25.208,312.820 23.712,312.600 23.489 C 311.883 22.761,313.236 23.615,318.988 27.524 M343.069 46.934 C 351.534 54.983,358.967 62.939,363.310 68.600 C 365.292 71.184,363.634 69.391,358.502 63.400 C 353.252 57.271,341.534 45.570,335.700 40.632 C 333.665 38.909,332.000 37.419,332.000 37.322 C 332.000 36.926,338.255 42.358,343.069 46.934 M34.200 72.400 C 33.184 73.720,32.263 74.800,32.153 74.800 C 32.043 74.800,32.784 73.720,33.800 72.400 C 34.816 71.080,35.737 70.000,35.847 70.000 C 35.957 70.000,35.216 71.080,34.200 72.400 M366.009 72.012 C 367.216 73.708,366.712 73.485,365.375 71.732 C 364.759 70.924,364.459 70.389,364.709 70.544 C 364.958 70.698,365.543 71.359,366.009 72.012 M368.409 75.212 C 369.616 76.908,369.112 76.685,367.775 74.932 C 367.159 74.124,366.859 73.589,367.109 73.744 C 367.358 73.898,367.943 74.559,368.409 75.212 M31.130 76.500 C 30.599 77.215,29.466 78.790,28.613 80.000 C 26.965 82.337,26.047 83.435,26.607 82.400 C 27.230 81.250,31.656 75.200,31.875 75.200 C 31.996 75.200,31.661 75.785,31.130 76.500 M370.400 78.000 C 370.870 78.660,371.164 79.200,371.054 79.200 C 370.944 79.200,370.470 78.660,370.000 78.000 C 369.530 77.340,369.236 76.800,369.346 76.800 C 369.456 76.800,369.930 77.340,370.400 78.000 M373.115 81.900 C 374.998 84.701,375.295 85.200,375.082 85.200 C 374.992 85.200,374.080 83.940,373.055 82.400 C 372.031 80.860,371.278 79.600,371.382 79.600 C 371.485 79.600,372.266 80.635,373.115 81.900 M378.451 90.200 L 378.844 91.000 378.193 90.200 C 377.834 89.760,377.365 89.040,377.149 88.600 L 376.756 87.800 377.407 88.600 C 377.766 89.040,378.235 89.760,378.451 90.200 M380.613 93.800 C 381.228 94.900,381.546 95.620,381.319 95.400 C 381.092 95.180,380.403 94.100,379.787 93.000 C 379.172 91.900,378.854 91.180,379.081 91.400 C 379.308 91.620,379.997 92.700,380.613 93.800 M19.000 95.200 C 18.659 95.860,18.289 96.400,18.179 96.400 C 18.069 96.400,18.259 95.860,18.600 95.200 C 18.941 94.540,19.311 94.000,19.421 94.000 C 19.531 94.000,19.341 94.540,19.000 95.200 M382.800 97.600 C 383.249 98.480,383.526 99.200,383.416 99.200 C 383.306 99.200,382.849 98.480,382.400 97.600 C 381.951 96.720,381.674 96.000,381.784 96.000 C 381.894 96.000,382.351 96.720,382.800 97.600 M17.200 98.400 C 16.751 99.280,16.294 100.000,16.184 100.000 C 16.074 100.000,16.351 99.280,16.800 98.400 C 17.249 97.520,17.706 96.800,17.816 96.800 C 17.926 96.800,17.649 97.520,17.200 98.400 M386.621 104.843 C 388.066 107.726,389.185 110.148,389.108 110.225 C 389.032 110.302,387.762 107.943,386.286 104.982 C 384.811 102.022,383.692 99.600,383.799 99.600 C 383.906 99.600,385.176 101.959,386.621 104.843 M13.715 104.984 C 12.681 107.066,11.771 108.704,11.693 108.626 C 11.515 108.449,15.135 101.200,15.401 101.200 C 15.508 101.200,14.749 102.903,13.715 104.984 M9.847 113.065 C 9.509 113.689,9.225 114.073,9.216 113.919 C 9.189 113.443,10.120 111.586,10.296 111.763 C 10.388 111.854,10.186 112.440,9.847 113.065 M7.828 117.638 C 7.288 118.827,6.836 119.653,6.823 119.474 C 6.789 118.986,8.485 115.152,8.659 115.326 C 8.742 115.408,8.368 116.449,7.828 117.638 M392.772 118.200 C 392.772 118.420,392.514 118.150,392.200 117.600 C 391.886 117.050,391.628 116.420,391.628 116.200 C 391.628 115.980,391.886 116.250,392.200 116.800 C 392.514 117.350,392.772 117.980,392.772 118.200 M8.258 283.875 C 8.086 284.048,6.782 280.965,6.828 280.492 C 6.844 280.331,7.208 280.991,7.637 281.958 C 8.066 282.925,8.345 283.788,8.258 283.875 M388.246 291.861 C 387.691 292.927,387.229 293.670,387.219 293.511 C 387.190 293.059,388.932 289.599,389.103 289.770 C 389.187 289.853,388.801 290.794,388.246 291.861 M13.958 295.500 C 15.304 298.195,16.316 300.400,16.206 300.400 C 15.985 300.400,11.200 290.975,11.200 290.539 C 11.200 290.041,11.491 290.564,13.958 295.500 M385.000 298.400 C 384.443 299.500,383.897 300.400,383.787 300.400 C 383.677 300.400,384.043 299.500,384.600 298.400 C 385.157 297.300,385.703 296.400,385.813 296.400 C 385.923 296.400,385.557 297.300,385.000 298.400 M17.600 302.400 C 18.049 303.280,18.326 304.000,18.216 304.000 C 18.106 304.000,17.649 303.280,17.200 302.400 C 16.751 301.520,16.474 300.800,16.584 300.800 C 16.694 300.800,17.151 301.520,17.600 302.400 M382.400 303.200 C 381.951 304.080,381.494 304.800,381.384 304.800 C 381.274 304.800,381.551 304.080,382.000 303.200 C 382.449 302.320,382.906 301.600,383.016 301.600 C 383.126 301.600,382.849 302.320,382.400 303.200 M21.028 308.300 C 21.635 309.345,22.394 310.650,22.714 311.200 L 23.295 312.200 22.547 311.301 C 21.674 310.249,19.468 306.400,19.739 306.400 C 19.841 306.400,20.421 307.255,21.028 308.300 M377.351 311.700 C 376.225 313.597,369.960 322.778,369.666 322.959 C 369.466 323.083,371.112 320.488,373.323 317.192 C 375.535 313.896,377.412 311.200,377.496 311.200 C 377.579 311.200,377.514 311.425,377.351 311.700 M28.563 319.900 C 29.824 321.715,30.765 323.200,30.655 323.200 C 30.456 323.200,26.424 317.546,25.806 316.400 C 25.148 315.180,26.302 316.645,28.563 319.900 M32.225 325.068 C 32.841 325.876,33.141 326.411,32.891 326.256 C 32.379 325.940,30.647 323.600,30.925 323.600 C 31.024 323.600,31.609 324.261,32.225 325.068 M365.409 328.763 C 363.738 330.943,362.079 332.968,361.722 333.263 C 361.365 333.558,362.650 331.775,364.577 329.300 C 366.504 326.825,368.163 324.800,368.263 324.800 C 368.364 324.800,367.079 326.583,365.409 328.763 M35.417 329.300 C 41.992 337.795,55.817 352.187,64.300 359.368 C 66.335 361.091,68.000 362.581,68.000 362.678 C 68.000 364.792,44.153 340.864,36.230 330.800 C 33.026 326.730,33.077 326.800,33.292 326.800 C 33.396 326.800,34.353 327.925,35.417 329.300 M359.537 336.080 C 356.388 339.850,346.035 350.704,346.642 349.600 C 346.823 349.270,348.979 346.930,351.433 344.400 C 353.888 341.870,357.015 338.495,358.383 336.900 C 359.752 335.305,360.962 334.000,361.073 334.000 C 361.184 334.000,360.493 334.936,359.537 336.080 M83.200 373.589 C 86.688 375.900,88.728 377.429,87.200 376.587 C 84.132 374.895,71.098 365.606,70.552 364.722 C 70.423 364.514,72.362 365.857,74.859 367.707 C 77.357 369.557,81.110 372.204,83.200 373.589 M91.465 378.892 C 92.199 379.325,92.800 379.763,92.800 379.865 C 92.800 380.144,89.943 378.479,88.800 377.533 L 87.800 376.705 88.965 377.405 C 89.606 377.789,90.731 378.459,91.465 378.892 M95.600 381.421 C 95.600 381.531,95.060 381.341,94.400 381.000 C 93.740 380.659,93.200 380.289,93.200 380.179 C 93.200 380.069,93.740 380.259,94.400 380.600 C 95.060 380.941,95.600 381.311,95.600 381.421 M98.400 383.021 C 98.400 383.131,97.860 382.941,97.200 382.600 C 96.540 382.259,96.000 381.889,96.000 381.779 C 96.000 381.669,96.540 381.859,97.200 382.200 C 97.860 382.541,98.400 382.911,98.400 383.021 M103.600 385.813 C 103.600 385.923,102.700 385.557,101.600 385.000 C 100.500 384.443,99.600 383.897,99.600 383.787 C 99.600 383.677,100.500 384.043,101.600 384.600 C 102.700 385.157,103.600 385.703,103.600 385.813 M110.000 388.800 C 111.210 389.439,112.020 389.962,111.800 389.962 C 111.580 389.962,110.410 389.439,109.200 388.800 C 107.990 388.161,107.180 387.638,107.400 387.638 C 107.620 387.638,108.790 388.161,110.000 388.800 M114.800 391.000 C 115.350 391.314,115.620 391.572,115.400 391.572 C 115.180 391.572,114.550 391.314,114.000 391.000 C 113.450 390.686,113.180 390.428,113.400 390.428 C 113.620 390.428,114.250 390.686,114.800 391.000 M132.200 397.845 C 133.164 398.284,133.203 398.343,132.400 398.146 C 131.850 398.011,130.860 397.655,130.200 397.355 C 129.236 396.916,129.197 396.857,130.000 397.054 C 130.550 397.189,131.540 397.545,132.200 397.845 " stroke="none" fill="#a8e2d7" fill-rule="evenodd"></path></g></svg>